<svg width="21" height="22" viewBox="0 0 21 22" fill="none" xmlns="http://www.w3.org/2000/svg">
<g clip-path="url(#clip0_1370_9603)">
<path d="M10.4508 5.78564C8.80596 5.78585 7.17606 6.49278 7.34738 7.90538L7.7673 10.9758C7.8412 11.5162 8.20611 12.38 8.75158 12.38H8.79042L9.237 17.7402C9.25632 17.9718 9.42428 18.1601 9.65692 18.1601H11.3366C11.5692 18.1601 11.7372 17.9718 11.7565 17.7402L12.2031 12.38H12.2419C12.7872 12.38 13.1523 11.516 13.2262 10.9758L13.6461 7.90538C13.7559 6.49152 12.0958 5.78522 10.4508 5.78564Z" fill="white"/>
<path d="M10.502 11.521L10.4919 11.5475C10.4953 11.5395 10.4976 11.5313 10.501 11.5233L10.502 11.521Z" fill="black"/>
<path d="M6.88863 15.6299C3.92277 16.049 1.84839 17.0515 1.84839 18.5273C1.84839 20.5152 5.31437 22.1266 10.2467 22.1266C15.179 22.1266 18.645 20.5152 18.645 18.5273C18.645 17.0515 16.5708 16.049 13.6052 15.6299L13.1943 16.3295C15.4295 16.6396 16.9653 17.2913 16.9653 18.0475C16.9653 19.1078 13.9573 19.9672 10.2467 19.9672C6.53611 19.9672 3.52805 19.1078 3.52805 18.0475C3.52784 17.2938 5.0536 16.6427 7.29574 16.3314C7.16032 16.0975 7.02427 15.864 6.88863 15.6299Z" fill="white"/>
<path d="M10.4963 5.24114C11.7138 5.24114 12.7009 4.25413 12.7009 3.03659C12.7009 1.81904 11.7138 0.832031 10.4963 0.832031C9.27876 0.832031 8.29175 1.81904 8.29175 3.03659C8.29175 4.25413 9.27876 5.24114 10.4963 5.24114Z" fill="white"/>
</g>
<defs>
<clipPath id="clip0_1370_9603">
<rect width="20.9958" height="20.9958" fill="white" transform="translate(-0.00146484 0.832031)"/>
</clipPath>
</defs>
</svg>
