<svg width="21" height="22" viewBox="0 0 21 22" fill="none" xmlns="http://www.w3.org/2000/svg">
<ellipse cx="10.0178" cy="10" rx="10.0178" ry="10" fill="#FFFCAC"/>
<path d="M3.40063 6.5H17.5673" stroke="#333333" stroke-width="1.5" stroke-linecap="round"/>
<path d="M4.81738 6.5H16.1507V14.2025C16.1507 15.2075 16.1507 15.7092 15.9609 16.1525C15.771 16.595 15.4133 16.925 14.6993 17.5865L13.2827 18.8983C11.9489 20.1328 11.2823 20.75 10.484 20.75C9.68576 20.75 9.01922 20.1328 7.68542 18.8975L6.26876 17.5865C5.55405 16.925 5.19705 16.595 5.00792 16.1525C4.81738 15.71 4.81738 15.2075 4.81738 14.2025V6.5Z" stroke="#333333" stroke-width="0.7"/>
<path d="M8.00488 14.75H12.9632M8.00488 11H12.9632" stroke="#333333" stroke-linecap="round"/>
</svg>
