<svg xmlns="http://www.w3.org/2000/svg" width="27" height="22" viewBox="0 0 37 27" fill="none">
            <g opacity="0.25">
              <path d="M9.24023 1.64916C9.24023 1.64916 9.47796 0.855519 10.0813 0.855519C10.6845 0.855519 11.0566 1.27409 11.6568 1.25248C12.2569 1.23068 12.9697 0.442915 13.6824 0.555426C14.3952 0.668032 15.1828 1.09258 15.0703 1.64926C14.9575 2.20584 10.6874 3.17446 9.24023 1.64916Z" fill="#081228"/>
              <path d="M22.1483 15.4845C21.5838 9.55782 16.1877 7.60722 14.9311 6.40675C13.9331 5.45349 14.2734 4.3117 14.4559 3.88175C14.9668 2.96981 16.1583 2.7681 16.1957 1.98024C16.2332 1.19257 14.8077 0.892476 14.2451 1.56773C13.6823 2.24289 13.0072 1.38015 12.7071 0.667455C12.407 -0.0453371 11.6942 0.704896 11.4692 1.38015C11.2442 2.05541 10.794 2.3555 10.419 1.98024C10.0439 1.60517 9.81868 1.45522 8.84342 1.75531C7.86817 2.05541 8.09319 3.0682 8.58087 3.12507C9.06845 3.18194 9.7437 3.25578 10.0742 4.15824C10.2344 4.69454 10.3279 5.61576 9.49991 6.40666C8.24324 7.60703 2.84716 9.55764 2.28261 15.4844C1.7721 20.8436 5.53093 23.31 11.2713 23.6102C11.2713 23.6179 11.2713 23.6263 11.2713 23.6339C11.5909 23.6417 11.9056 23.6438 12.2153 23.6403C12.5251 23.6438 12.84 23.6417 13.1594 23.6339C13.1594 23.6263 13.1594 23.6179 13.1594 23.6102C18.8999 23.3101 22.6589 20.8437 22.1483 15.4845Z" fill="#081228"/>
              <path fillRule="evenodd" clipRule="evenodd" d="M15.9819 11.8204V10.8271H11.3511H10.2779H9.66123V10.9082V11.8204H10.4603H11.007H11.1687C11.8755 11.8204 12.4783 12.2859 12.6878 12.925H9.66113V13.9183H12.7673V14.082C12.7673 14.9612 12.0478 15.6808 11.1687 15.6808H11.007H10.4603H10.1825L10.1803 15.6787L10.1783 15.6808H9.66123V16.1976V16.5643V16.5932C9.67355 16.5962 9.68635 16.5987 9.69867 16.6018L12.3422 19.2455L13.2464 20.1496H14.6482L14.6497 20.1479L11.1759 16.6742H11.3513C12.6829 16.6742 13.7726 15.5845 13.7726 14.2528V13.9184H15.9821V12.925H13.7498C13.6947 12.5162 13.5368 12.1391 13.3027 11.8205H13.7118L15.9819 11.8204Z" fill="#081228"/>
              <path opacity="0.3" d="M22.1486 15.4853C22.0841 14.8089 21.9563 14.1848 21.7793 13.6073L21.7792 13.607C21.7792 13.607 20.8473 11.4444 17.8652 12.0112C14.883 12.578 12.207 17.2064 9.24069 17.6493C6.27568 18.0919 3.56698 16.6662 2.75391 19.1899C3.93741 22.0112 7.07321 23.3914 11.2716 23.611C11.2716 23.6187 11.2716 23.6271 11.2716 23.6347C11.5912 23.6425 11.9059 23.6446 12.2156 23.6411C12.5254 23.6446 12.8403 23.6425 13.1597 23.6347C13.1597 23.6271 13.1597 23.6187 13.1597 23.611C18.9002 23.3109 22.6592 20.8445 22.1486 15.4853Z" fill="#081228"/>
              <path opacity="0.3" d="M14.2981 4.39415C14.3411 4.1804 14.4049 4.00306 14.4563 3.88211C14.9672 2.97017 16.1587 2.76847 16.1961 1.98061C16.2023 1.84942 16.1672 1.73217 16.103 1.63037C16.103 1.63037 15.9175 2.2807 15.0815 2.46828C14.2453 2.65596 13.4626 3.03112 13.1601 3.66875C12.8576 4.30637 12.1451 3.9313 12.0323 3.66875C11.9197 3.40609 11.0772 2.99359 10.8982 3.33112C10.7194 3.66875 9.79473 3.21851 9.26298 3.03103C8.73123 2.84344 8.37891 3.03766 8.37891 3.03766C8.43805 3.08524 8.50649 3.11671 8.58118 3.12543C9.06876 3.1823 9.74402 3.25614 10.0745 4.1586C10.097 4.23367 10.1176 4.31708 10.1351 4.4058L11.8672 4.85149L14.2981 4.39415Z" fill="#081228"/>
              <path d="M14.2778 5.43976C14.2685 5.43976 14.2593 5.43909 14.2498 5.43786C11.8877 5.14668 10.0702 4.56308 10.0522 4.55739C9.93403 4.5191 9.8692 4.39209 9.90749 4.27389C9.94578 4.15569 10.0724 4.09104 10.1909 4.12905C10.2086 4.13503 11.9877 4.70545 14.305 4.99132C14.4282 5.00649 14.5159 5.11881 14.5007 5.24213C14.4868 5.35615 14.3897 5.43976 14.2778 5.43976Z" fill="#081228"/>
              <path d="M10.1212 5.59193C10.0107 5.59193 9.91428 5.51051 9.89864 5.39781C9.88158 5.27459 9.96746 5.16094 10.0906 5.14388C12.6656 4.78625 14.1932 4.30009 14.2084 4.29507C14.327 4.25696 14.4536 4.32208 14.4916 4.44028C14.5296 4.55867 14.4648 4.6854 14.3464 4.7235C14.2834 4.74388 12.7705 5.22606 10.1525 5.58966C10.1421 5.59127 10.1315 5.59193 10.1212 5.59193Z" fill="#081228"/>
              <path d="M5.54263 15.8974C5.42168 15.8974 5.32177 15.8014 5.31779 15.6797C5.23922 13.2804 7.64783 10.2521 9.08687 8.44258C10.4864 6.68298 11.5941 4.43285 11.6051 4.41029C11.6597 4.29873 11.7946 4.25256 11.9061 4.30707C12.0178 4.36176 12.0641 4.49654 12.0094 4.60811C11.9981 4.63114 10.8698 6.92392 9.43909 8.72287C8.13048 10.3683 5.69447 13.4311 5.76774 15.6649C5.77182 15.7892 5.67438 15.8932 5.55011 15.8972C5.54765 15.8974 5.54509 15.8974 5.54263 15.8974Z" fill="#081228"/>
              <path opacity="0.3" d="M10.1733 4.68152C10.1733 4.68152 10.5819 4.87583 11.3376 5.01962C12.0934 5.1635 13.3913 5.01962 13.3913 5.01962C13.3913 5.01962 14.1506 4.96578 14.2493 4.88246C14.2523 4.75289 14.2639 4.60853 14.2639 4.60853C14.2639 4.60853 12.8202 4.9891 12.5641 4.90815C12.3081 4.8272 10.0996 4.41943 10.0996 4.41943L10.1733 4.68152Z" fill="#081228"/>
              <path opacity="0.3" d="M10 5.71838C10 5.71838 10.0986 5.82217 11.1685 5.59175C12.2385 5.36142 12.5648 5.35668 12.5648 5.35668C12.5648 5.35668 14.0294 5.58312 14.3789 5.59175C14.3789 5.59175 14.3071 5.41289 14.3204 5.31914C14.3337 5.2254 12.4077 5.08057 12.4077 5.08057L10.0913 5.47857L10 5.71838Z" fill="#081228"/>
              <path opacity="0.3" d="M11.7483 5.41141C11.7483 5.41141 11.1585 7.05007 9.45315 9.00485C7.74766 10.9598 6.21781 13.4499 6.049 14.5472C5.88019 15.6444 6.02094 15.8413 5.65516 16.0383C5.28948 16.2352 5.29308 15.385 5.35175 15.0396C5.41043 14.694 6.66795 11.762 8.27164 9.79271C9.87523 7.82344 11.0801 5.91615 11.6171 5.08326C11.9227 4.76743 11.7483 5.41141 11.7483 5.41141Z" fill="#081228"/>
              <path d="M12.0094 4.6084L12.1175 4.62224C12.1175 4.62224 11.7789 5.22062 11.7087 5.34034C11.6172 5.35702 11.6172 5.35702 11.6172 5.35702C11.6172 5.35702 11.9021 4.79759 12.0094 4.6084Z" fill="#081228"/>
              <path d="M11.8256 5.01904L12.5643 5.17137L12.3956 5.20663L11.748 5.11279L11.8256 5.01904Z" fill="#081228"/>
              <path d="M11.0488 5.45412L11.1683 5.23877L10.8979 5.47858L11.0488 5.45412Z" fill="#081228"/>
              <path d="M12.5645 4.71006L13.693 4.90779L13.7549 4.89167L12.6975 4.68115L12.5645 4.71006Z" fill="#081228"/>
            </g>
            <path d="M9.24023 1.27026C9.24023 1.27026 9.47796 0.476612 10.0813 0.476612C10.6845 0.476612 11.0566 0.895188 11.6568 0.873576C12.2569 0.851776 12.9697 0.0640084 13.6824 0.17652C14.3952 0.289125 15.1828 0.713673 15.0703 1.27035C14.9575 1.82694 10.6874 2.79555 9.24023 1.27026Z" fill="#6D0900"/>
            <path d="M22.1483 15.1056C21.5838 9.17892 16.1877 7.22831 14.9311 6.02785C13.9331 5.07458 14.2734 3.93279 14.4559 3.50284C14.9668 2.5909 16.1583 2.3892 16.1957 1.60134C16.2332 0.813663 14.8077 0.513571 14.2451 1.18883C13.6823 1.86399 13.0072 1.00125 12.7071 0.288548C12.407 -0.424243 11.6942 0.325989 11.4692 1.00125C11.2442 1.6765 10.794 1.97659 10.419 1.60134C10.0439 1.22627 9.81868 1.07632 8.84342 1.37641C7.86817 1.6765 8.09319 2.68929 8.58087 2.74616C9.06845 2.80303 9.7437 2.87687 10.0742 3.77933C10.2344 4.31563 10.3279 5.23686 9.49991 6.02775C8.24324 7.22813 2.84716 9.17873 2.28261 15.1055C1.7721 20.4647 5.53093 22.9311 11.2713 23.2313C11.2713 23.239 11.2713 23.2474 11.2713 23.255C11.5909 23.2628 11.9056 23.2649 12.2153 23.2614C12.5251 23.2649 12.84 23.2628 13.1594 23.255C13.1594 23.2474 13.1594 23.239 13.1594 23.2313C18.8999 22.9312 22.6589 20.4648 22.1483 15.1056Z" fill="#DEA842"/>
            <path fillRule="evenodd" clipRule="evenodd" d="M15.9819 11.4415V10.4482H11.3511H10.2779H9.66123V10.5293V11.4415H10.4603H11.007H11.1687C11.8755 11.4415 12.4783 11.907 12.6878 12.546H9.66113V13.5394H12.7673V13.7031C12.7673 14.5823 12.0478 15.3019 11.1687 15.3019H11.007H10.4603H10.1825L10.1803 15.2998L10.1783 15.3019H9.66123V15.8187V16.1854V16.2143C9.67355 16.2173 9.68635 16.2198 9.69867 16.2229L12.3422 18.8666L13.2464 19.7706H14.6482L14.6497 19.769L11.1759 16.2953H11.3513C12.6829 16.2953 13.7726 15.2056 13.7726 13.8739V13.5395H15.9821V12.5461H13.7498C13.6947 12.1373 13.5368 11.7602 13.3027 11.4416H13.7118L15.9819 11.4415Z" fill="#111111"/>
            <path opacity="0.3" d="M22.1486 15.1054C22.0841 14.429 21.9563 13.805 21.7793 13.2274L21.7792 13.2271C21.7792 13.2271 20.8473 11.0645 17.8652 11.6313C14.883 12.1981 12.207 16.8266 9.24069 17.2694C6.27568 17.712 3.56698 16.2863 2.75391 18.8101C3.93741 21.6314 7.07321 23.0115 11.2716 23.2312C11.2716 23.2388 11.2716 23.2472 11.2716 23.2549C11.5912 23.2626 11.9059 23.2647 12.2156 23.2612C12.5254 23.2647 12.8403 23.2626 13.1597 23.2549C13.1597 23.2472 13.1597 23.2388 13.1597 23.2312C18.9002 22.931 22.6592 20.4646 22.1486 15.1054Z" fill="#6D0900"/>
            <path opacity="0.3" d="M14.2981 4.01524C14.3411 3.8015 14.4049 3.62415 14.4563 3.5032C14.9672 2.59127 16.1587 2.38956 16.1961 1.6017C16.2023 1.47052 16.1672 1.35327 16.103 1.25146C16.103 1.25146 15.9175 1.90179 15.0815 2.08937C14.2453 2.27705 13.4626 2.65221 13.1601 3.28984C12.8576 3.92747 12.1451 3.5524 12.0323 3.28984C11.9197 3.02719 11.0772 2.61468 10.8982 2.95221C10.7194 3.28984 9.79473 2.83961 9.26298 2.65212C8.73123 2.46454 8.37891 2.65875 8.37891 2.65875C8.43805 2.70634 8.50649 2.73781 8.58118 2.74653C9.06876 2.8034 9.74402 2.87724 10.0745 3.7797C10.097 3.85477 10.1176 3.93818 10.1351 4.0269L11.8672 4.47258L14.2981 4.01524Z" fill="#6D0900"/>
            <path d="M14.2778 5.06085C14.2685 5.06085 14.2593 5.06019 14.2498 5.05895C11.8877 4.76777 10.0702 4.18417 10.0522 4.17849C9.93403 4.14019 9.8692 4.01318 9.90749 3.89498C9.94578 3.77678 10.0724 3.71214 10.1909 3.75015C10.2086 3.75612 11.9877 4.32654 14.305 4.61242C14.4282 4.62758 14.5159 4.7399 14.5007 4.86322C14.4868 4.97725 14.3897 5.06085 14.2778 5.06085Z" fill="#6D0900"/>
            <path d="M10.1212 5.21205C10.0107 5.21205 9.91428 5.13063 9.89864 5.01793C9.88158 4.8947 9.96746 4.78106 10.0906 4.76399C12.6656 4.40637 14.1932 3.92021 14.2084 3.91518C14.327 3.87708 14.4536 3.9422 14.4916 4.0604C14.5296 4.17878 14.4648 4.30551 14.3464 4.34362C14.2834 4.364 12.7705 4.84617 10.1525 5.20977C10.1421 5.21138 10.1315 5.21205 10.1212 5.21205Z" fill="#6D0900"/>
            <path d="M5.54263 15.5185C5.42168 15.5185 5.32177 15.4225 5.31779 15.3008C5.23922 12.9015 7.64783 9.87315 9.08687 8.06368C10.4864 6.30407 11.5941 4.05394 11.6051 4.03138C11.6597 3.91982 11.7946 3.87366 11.9061 3.92816C12.0178 3.98285 12.0641 4.11764 12.0094 4.2292C11.9981 4.25223 10.8698 6.54502 9.43909 8.34396C8.13048 9.98935 5.69447 13.0522 5.76774 15.286C5.77182 15.4103 5.67438 15.5142 5.55011 15.5183C5.54765 15.5185 5.54509 15.5185 5.54263 15.5185Z" fill="#6D0900"/>
            <path opacity="0.3" d="M10.1733 4.30163C10.1733 4.30163 10.5819 4.49595 11.3376 4.63974C12.0934 4.78362 13.3913 4.63974 13.3913 4.63974C13.3913 4.63974 14.1506 4.5859 14.2493 4.50258C14.2523 4.37301 14.2639 4.22865 14.2639 4.22865C14.2639 4.22865 12.8202 4.60922 12.5641 4.52827C12.3081 4.44732 10.0996 4.03955 10.0996 4.03955L10.1733 4.30163Z" fill="#6D0900"/>
            <path opacity="0.3" d="M10 5.33947C10 5.33947 10.0986 5.44327 11.1685 5.21284C12.2385 4.98251 12.5648 4.97777 12.5648 4.97777C12.5648 4.97777 14.0294 5.20422 14.3789 5.21284C14.3789 5.21284 14.3071 5.03398 14.3204 4.94024C14.3337 4.84649 12.4077 4.70166 12.4077 4.70166L10.0913 5.09967L10 5.33947Z" fill="#6D0900"/>
            <path opacity="0.3" d="M11.7483 5.03251C11.7483 5.03251 11.1585 6.67117 9.45315 8.62594C7.74766 10.5809 6.21781 13.071 6.049 14.1683C5.88019 15.2655 6.02094 15.4624 5.65516 15.6594C5.28948 15.8563 5.29308 15.0061 5.35175 14.6607C5.41043 14.3151 6.66795 11.3831 8.27164 9.41381C9.87523 7.44453 11.0801 5.53724 11.6171 4.70436C11.9227 4.38853 11.7483 5.03251 11.7483 5.03251Z" fill="#6D0900"/>
            <path d="M12.0094 4.22852L12.1175 4.24235C12.1175 4.24235 11.7789 4.84074 11.7087 4.96045C11.6172 4.97714 11.6172 4.97714 11.6172 4.97714C11.6172 4.97714 11.9021 4.41771 12.0094 4.22852Z" fill="#4F0703"/>
            <path d="M11.8256 4.64014L12.5643 4.79246L12.3956 4.82772L11.748 4.73388L11.8256 4.64014Z" fill="#4F0703"/>
            <path d="M11.0488 5.07522L11.1683 4.85986L10.8979 5.09967L11.0488 5.07522Z" fill="#4F0703"/>
            <path d="M12.5645 4.33067L13.693 4.52839L13.7549 4.51228L12.6975 4.30176L12.5645 4.33067Z" fill="#4F0703"/>
            <g opacity="0.25">
              <path d="M36.0005 11.4888C33.5049 13.0386 30.2033 14.9938 23.2964 17.4006C21.6707 17.9669 20.2837 18.3945 20.2837 18.3945C20.2837 18.3945 22.7327 25.7305 22.902 26.2194C23.0438 26.2522 29.2333 25.1883 36.0005 21.8993V11.4888Z" fill="#081228"/>
              <path d="M23.7929 24.5202C24.422 24.2897 24.6534 25.2902 24.1228 25.4165C23.5467 25.5535 23.1706 24.7482 23.7929 24.5202Z" fill="#081228"/>
              <path d="M25.3794 24.109C26.0085 23.8788 26.2399 24.879 25.7095 25.0054C25.1331 25.1422 24.7569 24.337 25.3794 24.109Z" fill="#081228"/>
              <path d="M20.8228 21.4395C20.8228 21.4395 19.5086 20.6641 17.4668 20.9912C15.4249 21.3183 14.2077 21.7015 12.4656 21.4395C11.0083 21.2202 9.4052 20.9165 8.52189 21.5264C7.63857 22.1363 7.90037 22.4356 7.90037 22.4356C7.90037 22.4356 6.65716 21.9297 6.26455 21.6732C5.87195 21.4166 5.08684 20.4347 3.74552 20.0586C2.4042 19.6826 1.22572 19.6976 1.52013 20.4827C1.02942 20.3191 0.801082 20.1735 0.277673 20.2062C-0.245736 20.2389 -0.180239 21.3936 1.81539 22.4357C3.81092 23.4777 4.79243 24.1648 5.57754 24.6555C6.36275 25.1463 8.42378 26.6185 9.667 26.7821C10.9102 26.9456 15.752 26.7252 18.1729 25.9848C20.5938 25.2444 21.8318 24.6572 21.8318 24.6572L20.8883 21.5803" fill="#081228"/>
              <path d="M1.52009 20.4827C1.52009 20.4827 1.94606 20.8277 2.73127 21.2858C3.51648 21.7439 4.825 22.5618 5.1849 22.8889C5.54481 23.216 6.78793 23.5104 7.73664 24.132C8.68535 24.7537 9.60137 25.048 9.60137 25.048C9.60137 25.048 8.84886 25.048 8.12915 24.6881C7.40944 24.3282 6.78793 23.8876 6.03542 23.6008C5.28291 23.3141 4.23609 22.4635 3.74529 22.1691C3.25458 21.8746 1.65753 20.8353 1.21289 20.3735C1.52009 20.4827 1.52009 20.4827 1.52009 20.4827Z" fill="#081228"/>
              <path d="M8.52197 21.5259C8.52197 21.5259 9.47069 21.2759 10.3867 21.5259C9.85902 21.1694 9.25145 21.2353 9.25145 21.2353C9.25145 21.2353 8.99173 21.2994 8.90804 21.3299C8.73259 21.3936 8.52197 21.5259 8.52197 21.5259Z" fill="#081228"/>
              <path d="M7.8979 22.1611C7.8979 22.1611 8.14614 22.7413 9.70007 23.2485H9.17656C9.43827 23.3793 10.1695 23.8211 10.9163 23.9028C11.663 23.9845 12.4808 24.0009 12.8407 24.1318C13.2006 24.2626 14.1983 24.4589 14.5909 24.3771C14.4765 24.5408 13.4132 24.3772 12.759 24.2954C12.1047 24.2136 10.8288 24.23 9.76556 23.7883C8.70235 23.3466 7.90084 22.4355 7.90084 22.4355C7.90084 22.4355 7.81174 22.3109 7.8979 22.1611Z" fill="#081228"/>
              <path d="M16.161 24.9336C16.161 24.9336 16.0874 25.6452 15.0078 25.7679C15.4985 26.0377 16.6026 25.8169 16.161 24.9336Z" fill="#081228"/>
              <path opacity="0.5" d="M18.1729 25.9844C20.5938 25.244 21.8318 24.6568 21.8318 24.6568L21.3313 23.0242C20.8334 23.0442 19.2513 23.1427 18.492 23.6005C17.5841 24.148 16.3515 25.3364 15.3116 25.7115C14.2716 26.0864 9.99022 25.3453 8.42719 24.6673C8.42719 24.6673 7.10142 24.0602 6.48673 23.7958C5.87214 23.5316 4.51338 22.6603 4.00362 22.3367C3.49386 22.0131 1.59795 20.5425 1.59795 20.5425C1.59795 20.5425 1.55359 20.5139 1.4788 20.4683C1.01663 20.3105 0.785916 20.174 0.277673 20.2058C-0.245736 20.2385 -0.180239 21.3932 1.81539 22.4353C3.81092 23.4773 4.79243 24.1644 5.57754 24.6551C6.36275 25.1459 8.42378 26.6181 9.667 26.7817C10.9102 26.9451 15.752 26.7248 18.1729 25.9844Z" fill="#081228"/>
              <path d="M20.4784 18.979L18.8706 19.4195L20.8752 26.0633L22.7369 25.728L20.4784 18.979Z" fill="#081228"/>
              <path d="M21.4121 24.4664C22.0411 24.2361 22.2726 25.2365 21.7421 25.3626C21.1657 25.4996 20.7897 24.6945 21.4121 24.4664Z" fill="#081228"/>
              <path d="M36.0003 16.1494C36.0003 16.1494 28.9594 23.2193 22.1187 23.8802C22.737 25.7279 22.9018 26.2198 22.9018 26.2198C22.9018 26.2198 29.8799 25.1473 36.0003 21.8997C36.0003 18.6521 36.0003 16.1494 36.0003 16.1494Z" fill="#081228"/>
              <path opacity="0.2" d="M20.4788 18.979L20.2837 19.0325C20.2837 19.0325 21.3323 24.2852 20.6689 25.3782C20.842 25.9519 20.8756 26.0633 20.8756 26.0633L22.7373 25.7323L20.4788 18.979Z" fill="#081228"/>
            </g>
            <path d="M36 10C33.5045 11.5498 30.2033 14.5359 23.2964 16.9426C21.6707 17.5089 20.2837 17.9365 20.2837 17.9365C20.2837 17.9365 22.7327 25.2725 22.902 25.7614C23.0438 25.7942 29.7328 24.789 36.5 21.5L37 19V16V13L36 10Z" fill="#111111"/>
            <path d="M23.7929 24.0617C24.422 23.8312 24.6534 24.8317 24.1228 24.958C23.5467 25.095 23.1706 24.2897 23.7929 24.0617Z" fill="white"/>
            <path d="M25.3794 23.6505C26.0085 23.4203 26.2399 24.4205 25.7095 24.5469C25.1331 24.6838 24.7569 23.8785 25.3794 23.6505Z" fill="white"/>
            <path d="M20.8228 20.9805C20.8228 20.9805 19.5086 20.2052 17.4668 20.5324C15.4249 20.8595 14.2077 21.2426 12.4656 20.9805C11.0083 20.7613 9.4052 20.4576 8.52189 21.0674C7.63857 21.6774 7.90037 21.9766 7.90037 21.9766C7.90037 21.9766 6.65716 21.4707 6.26455 21.2143C5.87195 20.9577 5.08684 19.9758 3.74552 19.5997C2.4042 19.2236 1.22572 19.2385 1.52013 20.0237C1.02942 19.8601 0.801082 19.7145 0.277673 19.7472C-0.245736 19.78 -0.180239 20.9346 1.81539 21.9767C3.81092 23.0188 4.79243 23.7058 5.57754 24.1965C6.36275 24.6873 8.42378 26.1595 9.667 26.323C10.9102 26.4865 15.752 26.2662 18.1729 25.5258C20.5938 24.7854 21.8318 24.1981 21.8318 24.1981L20.8883 21.1213" fill="#E5A18F"/>
            <path d="M1.52009 20.0242C1.52009 20.0242 1.94606 20.3693 2.73127 20.8273C3.51648 21.2854 4.825 22.1033 5.1849 22.4304C5.54481 22.7575 6.78793 23.0519 7.73664 23.6735C8.68535 24.2952 9.60137 24.5895 9.60137 24.5895C9.60137 24.5895 8.84886 24.5895 8.12915 24.2296C7.40944 23.8697 6.78793 23.4291 6.03542 23.1423C5.28291 22.8556 4.23609 22.005 3.74529 21.7106C3.25458 21.4162 1.65753 20.3768 1.21289 19.915C1.52009 20.0242 1.52009 20.0242 1.52009 20.0242Z" fill="#AF5E58"/>
            <path d="M8.52197 21.0679C8.52197 21.0679 9.47069 20.8179 10.3867 21.0679C9.85902 20.7114 9.25145 20.7773 9.25145 20.7773C9.25145 20.7773 8.99173 20.8414 8.90804 20.8719C8.73259 20.9355 8.52197 21.0679 8.52197 21.0679Z" fill="#AF5E58"/>
            <path d="M7.8979 21.7031C7.8979 21.7031 8.14614 22.2833 9.70007 22.7905H9.17656C9.43827 22.9213 10.1695 23.3631 10.9163 23.4448C11.663 23.5265 12.4808 23.5429 12.8407 23.6738C13.2006 23.8046 14.1983 24.0009 14.5909 23.9191C14.4765 24.0828 13.4132 23.9192 12.759 23.8374C12.1047 23.7556 10.8288 23.772 9.76556 23.3303C8.70235 22.8886 7.90084 21.9775 7.90084 21.9775C7.90084 21.9775 7.81174 21.8529 7.8979 21.7031Z" fill="#AF5E58"/>
            <path d="M16.161 24.4746C16.161 24.4746 16.0874 25.1862 15.0078 25.3089C15.4985 25.5787 16.6026 25.3579 16.161 24.4746Z" fill="#CC8A83"/>
            <path opacity="0.5" d="M18.1729 25.5263C20.5938 24.786 21.8318 24.1987 21.8318 24.1987L21.3313 22.5661C20.8334 22.5861 19.2513 22.6845 18.492 23.1424C17.5841 23.6898 16.3515 24.8783 15.3116 25.2533C14.2716 25.6283 9.99022 24.8872 8.42719 24.2092C8.42719 24.2092 7.10142 23.6021 6.48673 23.3377C5.87214 23.0735 4.51338 22.2023 4.00362 21.8787C3.49386 21.5551 1.59795 20.0845 1.59795 20.0845C1.59795 20.0845 1.55359 20.0558 1.4788 20.0103C1.01663 19.8525 0.785916 19.716 0.277673 19.7478C-0.245736 19.7805 -0.180239 20.9352 1.81539 21.9773C3.81092 23.0193 4.79243 23.7063 5.57754 24.1971C6.36275 24.6879 8.42378 26.1601 9.667 26.3236C10.9102 26.487 15.752 26.2667 18.1729 25.5263Z" fill="#AF5E58"/>
            <path d="M20.4784 18.521L18.8706 18.9615L20.8752 25.6053L22.7369 25.27L20.4784 18.521Z" fill="white"/>
            <path d="M21.4121 24.0079C22.0411 23.7776 22.2726 24.778 21.7421 24.9041C21.1657 25.0411 20.7897 24.236 21.4121 24.0079Z" fill="#111111"/>
            <path d="M36.0003 15.6914C36.0003 15.6914 28.9594 22.7613 22.1187 23.4222C22.737 25.2699 22.9018 25.7618 22.9018 25.7618C22.9018 25.7618 29.8799 24.6893 36.0003 21.4417C36.0003 18.194 36.0003 15.6914 36.0003 15.6914Z" fill="black"/>
            <path opacity="0.2" d="M20.4788 18.5205L20.2837 18.5739C20.2837 18.5739 21.3323 23.8266 20.6689 24.9196C20.842 25.4934 20.8756 25.6047 20.8756 25.6047L22.7373 25.2737L20.4788 18.5205Z" fill="#111111"/>
            <g opacity="0.25">
              <path fillRule="evenodd" clipRule="evenodd" d="M7.53356 5.88965C7.51442 5.93819 7.48219 5.93866 7.46181 5.8906L7.16541 5.19298C7.14503 5.14501 7.08892 5.08938 7.04077 5.06947L6.35992 4.78758C6.31177 4.76767 6.31092 4.73307 6.35802 4.7107L7.03356 4.3908C7.08067 4.36843 7.13707 4.31146 7.15887 4.26407L7.45925 3.61081C7.48105 3.56341 7.51517 3.56408 7.53517 3.61223L7.82057 4.30113C7.84048 4.34929 7.89621 4.40511 7.94437 4.42521L8.63801 4.71469C8.68616 4.73478 8.68569 4.76653 8.63706 4.7854L7.9364 5.05639C7.88778 5.07525 7.83242 5.13032 7.81328 5.17876L7.53356 5.88965Z" fill="#081228"/>
              <path fillRule="evenodd" clipRule="evenodd" d="M6.59301 7.23717C6.58069 7.26854 6.55984 7.26883 6.54666 7.23783L6.3552 6.78712C6.34202 6.75613 6.30581 6.72021 6.27463 6.70731L5.83472 6.52523C5.80363 6.51234 5.80307 6.48997 5.83349 6.47556L6.26998 6.26883C6.30041 6.25443 6.33681 6.21756 6.35093 6.18694L6.54505 5.76486C6.55908 5.73424 6.58117 5.73471 6.59406 5.7658L6.77842 6.21092C6.79131 6.2421 6.82733 6.27812 6.85842 6.29111L7.30656 6.47822C7.33765 6.4912 7.33737 6.51177 7.306 6.5239L6.8533 6.69897C6.82192 6.71111 6.78619 6.74675 6.77377 6.77802L6.59301 7.23717Z" fill="#081228"/>
            </g>
            <path fillRule="evenodd" clipRule="evenodd" d="M7.53356 5.51026C7.51442 5.55879 7.48219 5.55926 7.46181 5.51121L7.16541 4.81358C7.14503 4.76562 7.08892 4.70998 7.04077 4.69008L6.35992 4.40818C6.31177 4.38828 6.31092 4.35368 6.35802 4.33131L7.03356 4.01141C7.08067 3.98904 7.13707 3.93207 7.15887 3.88468L7.45925 3.23141C7.48105 3.18402 7.51517 3.18468 7.53517 3.23283L7.82057 3.92174C7.84048 3.96989 7.89621 4.02572 7.94437 4.04581L8.63801 4.33529C8.68616 4.35539 8.68569 4.38714 8.63706 4.406L7.9364 4.677C7.88778 4.69586 7.83242 4.75093 7.81328 4.79936L7.53356 5.51026Z" fill="white"/>
            <path fillRule="evenodd" clipRule="evenodd" d="M6.59301 6.85729C6.58069 6.88866 6.55984 6.88894 6.54666 6.85795L6.3552 6.40724C6.34202 6.37625 6.30581 6.34032 6.27463 6.32743L5.83472 6.14535C5.80363 6.13246 5.80307 6.11009 5.83349 6.09568L6.26998 5.88895C6.30041 5.87454 6.33681 5.83767 6.35093 5.80706L6.54505 5.38497C6.55908 5.35436 6.58117 5.35483 6.59406 5.38592L6.77842 5.83104C6.79131 5.86222 6.82733 5.89824 6.85842 5.91123L7.30656 6.09833C7.33765 6.11132 7.33737 6.13189 7.306 6.14402L6.8533 6.31909C6.82192 6.33122 6.78619 6.36686 6.77377 6.39814L6.59301 6.85729Z" fill="white"/>
          </svg>