<svg width="64" height="68" viewBox="0 0 64 68" fill="none" xmlns="http://www.w3.org/2000/svg">
<g filter="url(#filter0_d_1916_1534)">
<rect x="4.57812" width="54.4866" height="59.2388" rx="16.6609" fill="#FAFAFF"/>
</g>
<path d="M22.6637 36.4156L22.9131 37.6989C22.9547 37.9128 22.9576 38.0876 22.9227 38.2276C22.8877 38.3676 22.8222 38.4758 22.7243 38.5548C22.6265 38.6337 22.5014 38.6868 22.3513 38.7138C22.202 38.7451 22.0661 38.7426 21.9458 38.7061C21.8255 38.6695 21.7242 38.5938 21.6393 38.4771C21.5545 38.3604 21.4917 38.1972 21.4501 37.9833L20.5072 33.1322C20.4473 32.8131 20.4696 32.5735 20.5709 32.4095C20.6748 32.2473 20.839 32.1443 21.0666 32.1045C21.2924 32.0562 21.4833 32.0901 21.6404 32.2016C21.7957 32.3157 21.9061 32.5296 21.9702 32.8478L22.1573 33.8104L23.492 33.5509L23.3223 32.6782C23.2288 32.197 23.0703 31.8039 22.8467 31.4988C22.6232 31.1937 22.3384 30.9849 21.9916 30.8681C21.6452 30.7534 21.241 30.741 20.7786 30.8287C20.317 30.9206 19.9469 31.0836 19.6687 31.3197C19.3909 31.5579 19.2051 31.8581 19.1121 32.2247C19.0191 32.5913 19.0194 33.0152 19.1129 33.4965L20.021 38.1679C20.1145 38.6492 20.2727 39.0402 20.4962 39.3452C20.7198 39.6503 21.005 39.8612 21.3517 39.978C21.6981 40.0927 22.1023 40.1051 22.5647 40.0175C23.0263 39.9256 23.3964 39.7626 23.6746 39.5265C23.9524 39.2883 24.1378 38.9859 24.2308 38.6193C24.3238 38.2527 24.3239 37.8309 24.2304 37.3497L23.9984 36.1561L22.6637 36.4156ZM25.5094 39.3386L29.2439 38.6126L28.9944 37.3293L26.6716 37.7808L25.1748 30.0807L23.7631 30.3551L25.5094 39.3386ZM29.8115 31.3236C29.7517 31.0045 29.7739 30.7649 29.8752 30.601C29.9791 30.4387 30.1433 30.3357 30.3709 30.2959C30.5968 30.2476 30.7876 30.2815 30.9447 30.3931C31.1001 30.5072 31.2105 30.721 31.2745 31.0393L32.2175 35.8904C32.2773 36.2095 32.2551 36.4491 32.1538 36.6131C32.0499 36.7753 31.8857 36.8783 31.6581 36.9181C31.4322 36.9664 31.2414 36.9325 31.0843 36.821C30.9289 36.7069 30.8185 36.493 30.7545 36.1748L29.8115 31.3236ZM29.3253 36.3593C29.4188 36.8406 29.5813 37.2307 29.8112 37.5346C30.0412 37.8384 30.3307 38.0485 30.6839 38.1641C31.0367 38.2775 31.4452 38.2891 31.9076 38.2014C32.3691 38.1095 32.7436 37.9457 33.0281 37.7084C33.3123 37.4689 33.502 37.1657 33.6014 36.7978C33.7008 36.43 33.7053 36.0074 33.6117 35.5261L32.7037 30.8547C32.6101 30.3734 32.4473 29.9812 32.2173 29.6773C31.9874 29.3735 31.6983 29.1656 31.3451 29.05C30.9923 28.9366 30.5839 28.925 30.1214 29.0126C29.6598 29.1045 29.2854 29.2683 29.0008 29.5057C28.7167 29.7451 28.5266 30.0462 28.4272 30.4141C28.3278 30.7819 28.3237 31.2067 28.4173 31.6879L29.3253 36.3593ZM33.4352 30.7125C33.5084 31.0779 33.623 31.393 33.7766 31.6583C33.9325 31.9233 34.1129 32.1546 34.3216 32.3493C34.5283 32.5445 34.7487 32.7191 34.9824 32.8713C35.2141 33.0238 35.4466 33.1695 35.6754 33.307C35.9063 33.4442 36.1208 33.5889 36.3191 33.7413C36.5192 33.8911 36.6883 34.0646 36.83 34.2568C36.9696 34.4494 37.0666 34.6748 37.1199 34.9374C37.1611 35.1492 37.1644 35.3261 37.1294 35.4661C37.0945 35.6061 37.029 35.7143 36.9311 35.7932C36.8328 35.8701 36.7082 35.9253 36.558 35.9523C36.4087 35.9835 36.2728 35.9811 36.1525 35.9446C36.0322 35.908 35.9309 35.8323 35.8461 35.7156C35.7612 35.5989 35.6985 35.4357 35.6569 35.2218L35.5322 34.5801L34.1975 34.8396L34.3048 35.3914C34.3983 35.8727 34.5564 36.2637 34.78 36.5687C35.0035 36.8738 35.2887 37.0848 35.6355 37.2015C35.9818 37.3163 36.386 37.3287 36.8485 37.241C37.3101 37.1491 37.6802 36.9861 37.9584 36.75C38.2361 36.5118 38.4215 36.2094 38.5146 35.8428C38.6075 35.4762 38.6077 35.0545 38.5141 34.5732C38.4409 34.2079 38.3264 33.8927 38.1727 33.6274C38.0169 33.3624 37.8365 33.1311 37.6277 32.9364C37.4211 32.7413 37.2007 32.5666 36.9669 32.4145C36.7353 32.2619 36.5027 32.1163 36.274 31.9787C36.0431 31.8415 35.8285 31.6968 35.6302 31.5444C35.4302 31.3947 35.261 31.2211 35.1193 31.0289C34.9798 30.8362 34.8823 30.6088 34.8294 30.3483C34.7696 30.0292 34.7854 29.7908 34.8803 29.6281C34.9756 29.4675 35.1356 29.3654 35.3631 29.3256C35.589 29.2772 35.7756 29.312 35.9241 29.4252C36.0731 29.5405 36.177 29.7556 36.2411 30.0739L36.3135 30.4461L37.6482 30.1866L37.5933 29.9043C37.4997 29.423 37.3412 29.0299 37.1219 28.724C36.9005 28.4185 36.6179 28.2093 36.2753 28.0917C35.9332 27.9761 35.5334 27.9629 35.0752 28.0497C34.6179 28.1408 34.2521 28.3029 33.9781 28.5382C33.7046 28.7756 33.521 29.0754 33.4301 29.4416C33.3414 29.8074 33.3416 30.2313 33.4352 30.7125ZM39.6567 28.5975L42.0951 28.1236L41.8456 26.8402L37.9955 27.5886L39.7417 36.5721L43.5918 35.8237L43.3423 34.5404L40.904 35.0143L40.3926 32.3835L42.3305 32.0068L42.081 30.7234L40.1431 31.1001L39.6567 28.5975ZM44.4645 35.6541L46.6976 35.22C47.4029 35.0806 47.8922 34.788 48.1694 34.3413C48.4444 33.8949 48.5108 33.3115 48.3707 32.5907L47.4876 28.0476C47.3475 27.3268 47.0674 26.8107 46.6452 26.4999C46.2208 26.1895 45.6576 26.1014 44.9513 26.2365L42.7183 26.6706L44.4645 35.6541ZM45.1751 27.5248C45.3244 27.4936 45.4581 27.4964 45.5785 27.533C45.6966 27.5699 45.7958 27.6461 45.8785 27.7632C45.959 27.8808 46.0218 28.0439 46.0634 28.2578L46.9715 32.9292C47.013 33.1431 47.0159 33.3179 46.9853 33.4571C46.9524 33.5966 46.889 33.7044 46.7933 33.7829C46.6955 33.8619 46.5726 33.9146 46.4224 33.9416L45.6267 34.0963L44.3794 27.6795L45.1751 27.5248ZM17.6141 28.14L46.4651 22.5319C47.336 22.3626 48.1967 22.5648 48.8817 23.0268C49.5667 23.4888 50.0768 24.2126 50.2467 25.0867L52.0389 34.307C52.2082 35.1779 52.0061 36.0387 51.5441 36.7236C51.0821 37.4086 50.3583 37.9187 49.4842 38.0886L20.6331 43.6967C19.7622 43.866 18.9015 43.6638 18.2165 43.2018C17.5316 42.7398 17.0214 42.0159 16.8515 41.1419L15.0593 31.9216C14.89 31.0507 15.0921 30.19 15.5541 29.505C16.0161 28.82 16.74 28.3099 17.6141 28.14Z" fill="#4338CA"/>
<path d="M21.4062 27.6291L31.4895 13.1445L32.7735 14.0373L22.6903 28.5219L21.4062 27.6291Z" fill="#4338CA"/>
<path d="M34.8764 13.0898L43.5269 23.5165L42.3224 24.5131L33.6719 14.0865L34.8764 13.0898Z" fill="#4338CA"/>
<path d="M33.0849 9C33.8266 9 34.4982 9.30072 34.9844 9.78688C35.4706 10.2731 35.7713 10.9447 35.7713 11.6864C35.7713 12.4282 35.4706 13.0998 34.9844 13.5859C34.4982 14.0721 33.8266 14.3728 33.0849 14.3728C32.3431 14.3728 31.6715 14.0721 31.1853 13.5859C30.6992 13.0998 30.3984 12.4282 30.3984 11.6864C30.3984 10.9447 30.6992 10.2731 31.1853 9.78688C31.6715 9.30071 32.3431 9 33.0849 9ZM33.8777 10.8936C33.6749 10.6908 33.3945 10.5653 33.0849 10.5653C32.7752 10.5653 32.4949 10.6908 32.292 10.8936C32.0893 11.0964 31.9638 11.3767 31.9638 11.6864C31.9638 11.9961 32.0893 12.2764 32.292 12.4792C32.4949 12.682 32.7752 12.8075 33.0849 12.8075C33.3945 12.8075 33.6749 12.682 33.8777 12.4792C34.0804 12.2764 34.2059 11.9961 34.2059 11.6864C34.2059 11.3767 34.0804 11.0964 33.8777 10.8936Z" fill="#4338CA"/>
<defs>
<filter id="filter0_d_1916_1534" x="0.578125" y="0" width="62.4883" height="67.2383" filterUnits="userSpaceOnUse" color-interpolation-filters="sRGB">
<feFlood flood-opacity="0" result="BackgroundImageFix"/>
<feColorMatrix in="SourceAlpha" type="matrix" values="0 0 0 0 0 0 0 0 0 0 0 0 0 0 0 0 0 0 127 0" result="hardAlpha"/>
<feOffset dy="4"/>
<feGaussianBlur stdDeviation="2"/>
<feComposite in2="hardAlpha" operator="out"/>
<feColorMatrix type="matrix" values="0 0 0 0 0 0 0 0 0 0 0 0 0 0 0 0 0 0 0.25 0"/>
<feBlend mode="normal" in2="BackgroundImageFix" result="effect1_dropShadow_1916_1534"/>
<feBlend mode="normal" in="SourceGraphic" in2="effect1_dropShadow_1916_1534" result="shape"/>
</filter>
</defs>
</svg>
