<svg width="57" height="58" viewBox="0 0 57 58" fill="none" xmlns="http://www.w3.org/2000/svg">
<path d="M10.1428 8.89769H42.302V22.9674H46.3223V4.87793H6.12305V53.1167H20.1928V49.097H10.1428V8.89769Z" fill="white"/>
<path d="M14.1616 12.917H38.2813V16.9368H14.1616V12.917ZM14.1616 20.9571H34.261V24.9768H14.1616V20.9571ZM14.1616 28.9966H26.2215V33.0164H14.1616V28.9966ZM42.716 26.0469L24.2396 44.5233L24.211 53.0223L32.7672 53.0509L51.2436 34.5745L42.716 26.0469ZM45.5585 34.5745L44.1609 35.9721L41.3178 33.1296L42.716 31.7314L45.5585 34.5745ZM41.3189 38.8146L34.217 45.9165L31.3745 43.074L38.4764 35.9721L41.3189 38.8146ZM28.2445 49.0157L28.2539 46.1941L28.532 45.916L31.3745 48.7585L31.1079 49.0251L28.2445 49.0157Z" fill="white"/>
</svg>
