<svg width="64" height="68" viewBox="0 0 64 68" fill="none" xmlns="http://www.w3.org/2000/svg">
<g filter="url(#filter0_d_1916_1503)">
<rect x="4.57812" width="54.4866" height="59.2388" rx="16.6609" fill="#FAFAFF"/>
</g>
<path d="M48.1017 28.0352H15.7109V44.0922H48.1017V28.0352Z" fill="#4338CA"/>
<path d="M19.7422 40.741V34.2305H21.0671V39.6354H24.363V40.741H19.7422Z" fill="#E9F1F8"/>
<path d="M26.9688 40.7384V34.1758H28.2936V40.7384H26.9688Z" fill="#E9F1F8"/>
<path d="M32.9357 40.7384L30.5898 34.1758H32.0266L33.6876 39.0331L35.2945 34.1758H36.7004L34.3489 40.7384H32.9357Z" fill="#E9F1F8"/>
<path d="M39.082 40.7384V34.1758H43.9479V35.2858H40.4077V36.7409H43.7037V37.8465H40.4077V39.6328H44.0744V40.7384H39.082Z" fill="#E9F1F8"/>
<path d="M31.9075 31.4555C33.7462 31.4555 35.2368 29.9649 35.2368 28.1262C35.2368 26.2875 33.7462 24.7969 31.9075 24.7969C30.0687 24.7969 28.5781 26.2875 28.5781 28.1262C28.5781 29.9649 30.0687 31.4555 31.9075 31.4555Z" fill="white"/>
<path d="M21.4308 28.7484H21.7022C21.8911 28.7484 22.0722 28.6734 22.2058 28.5398C22.3393 28.4063 22.4143 28.2252 22.4143 28.0363C22.4143 27.8475 22.3393 27.6663 22.2058 27.5328C22.0722 27.3992 21.8911 27.3242 21.7022 27.3242H21.4308C21.242 27.3242 21.0609 27.3992 20.9273 27.5328C20.7938 27.6663 20.7188 27.8475 20.7188 28.0363C20.7188 28.2252 20.7938 28.4063 20.9273 28.5398C21.0609 28.6734 21.242 28.7484 21.4308 28.7484Z" fill="#4338CA"/>
<path d="M25.8714 43.3813H16.4238V28.7484H18.7334C18.9222 28.7484 19.1034 28.6734 19.2369 28.5398C19.3705 28.4063 19.4455 28.2252 19.4455 28.0363C19.4455 27.8475 19.3705 27.6663 19.2369 27.5328C19.1034 27.3992 18.9222 27.3242 18.7334 27.3242H15.7121C15.5233 27.3243 15.3422 27.3994 15.2087 27.5329C15.0752 27.6664 15.0001 27.8475 15 28.0363V44.0934C15 44.2822 15.075 44.4633 15.2086 44.5969C15.3421 44.7304 15.5232 44.8054 15.7121 44.8054H25.8714C26.0602 44.8054 26.2414 44.7304 26.3749 44.5969C26.5085 44.4633 26.5835 44.2822 26.5835 44.0934C26.5835 43.9045 26.5085 43.7234 26.3749 43.5898C26.2414 43.4563 26.0602 43.3813 25.8714 43.3813Z" fill="#4338CA"/>
<path d="M48.0997 27.3242H37.4887C37.2999 27.3242 37.1187 27.3992 36.9852 27.5328C36.8516 27.6663 36.7766 27.8475 36.7766 28.0363C36.7766 28.2252 36.8516 28.4063 36.9852 28.5398C37.1187 28.6734 37.2999 28.7484 37.4887 28.7484H47.388V43.3813H28.5754C28.3865 43.3813 28.2054 43.4563 28.0718 43.5898C27.9383 43.7234 27.8633 43.9045 27.8633 44.0934C27.8633 44.2822 27.9383 44.4633 28.0718 44.5969C28.2054 44.7304 28.3865 44.8054 28.5754 44.8054H48.0997C48.2885 44.8054 48.4697 44.7304 48.6032 44.5969C48.7368 44.4633 48.8118 44.2822 48.8118 44.0934V28.0363C48.8117 27.8475 48.7366 27.6664 48.6031 27.5329C48.4696 27.3994 48.2885 27.3243 48.0997 27.3242Z" fill="#4338CA"/>
<path d="M24.3618 39.6338H21.0671V34.2305H19.7422V40.7394H24.3618V39.6338Z" fill="white"/>
<path d="M28.2936 34.1758H26.9688V40.7384H28.2936V34.1758Z" fill="white"/>
<path d="M34.3501 40.7384L36.7004 34.1758H35.2945L33.6876 39.0331L32.0266 34.1758H30.5898L32.9357 40.7384H34.3501Z" fill="white"/>
<path d="M43.9479 35.2858V34.1758H39.082V40.7384H44.0732V39.6328H40.4069V37.8465H43.7017V36.7409H40.4069V35.2858H43.9479Z" fill="white"/>
<path d="M35.9483 28.1241C35.9483 27.1219 35.5759 26.1555 34.9036 25.4123C34.2312 24.6691 33.3067 24.2022 32.3095 24.1022C31.3123 24.0022 30.3136 24.2762 29.507 24.871C28.7004 25.4658 28.1435 26.339 27.9444 27.3212H24.3449C24.156 27.3212 23.9749 27.3963 23.8414 27.5298C23.7078 27.6634 23.6328 27.8445 23.6328 28.0333C23.6328 28.2222 23.7078 28.4033 23.8414 28.5369C23.9749 28.6704 24.156 28.7454 24.3449 28.7454H27.9188C28.0781 29.7482 28.6091 30.6542 29.4062 31.2831C30.2033 31.912 31.2079 32.2177 32.2202 32.1394C33.2325 32.061 34.1782 31.6044 34.869 30.8603C35.5599 30.1163 35.9452 29.1394 35.9483 28.1241ZM33.7571 29.9747C33.329 30.4025 32.7657 30.6687 32.1633 30.7278C31.5609 30.787 30.9566 30.6354 30.4535 30.299C29.9503 29.9625 29.5793 29.4621 29.4038 28.8828C29.2282 28.3035 29.2589 27.6813 29.4907 27.1221C29.7224 26.563 30.1409 26.1015 30.6748 25.8162C31.2086 25.531 31.8249 25.4397 32.4185 25.5578C33.0122 25.676 33.5465 25.9963 33.9304 26.4643C34.3143 26.9322 34.5242 27.5188 34.5241 28.1241C34.5253 28.4682 34.458 28.8092 34.3264 29.1271C34.1947 29.4451 34.0012 29.7337 33.7571 29.9763V29.9747Z" fill="#4338CA"/>
<path d="M37.9965 23.0441C38.0627 22.978 38.1152 22.8995 38.151 22.8131C38.1868 22.7267 38.2053 22.6341 38.2053 22.5406C38.2053 22.447 38.1868 22.3544 38.151 22.268C38.1152 22.1816 38.0627 22.1031 37.9965 22.037C36.382 20.4226 34.1923 19.5156 31.9091 19.5156C29.6259 19.5156 27.4363 20.4226 25.8218 22.037C25.7557 22.1031 25.7032 22.1816 25.6675 22.268C25.6317 22.3543 25.6133 22.4469 25.6133 22.5404C25.6133 22.6339 25.6317 22.7264 25.6675 22.8128C25.7032 22.8992 25.7557 22.9776 25.8218 23.0437C25.8879 23.1098 25.9663 23.1623 26.0527 23.198C26.1391 23.2338 26.2316 23.2522 26.3251 23.2522C26.4186 23.2522 26.5112 23.2338 26.5975 23.198C26.6839 23.1623 26.7624 23.1098 26.8285 23.0437C28.176 21.6965 30.0034 20.9396 31.9089 20.9396C33.8144 20.9396 35.6419 21.6965 36.9894 23.0437C37.1229 23.1772 37.304 23.2523 37.4929 23.2523C37.6817 23.2524 37.8628 23.1775 37.9965 23.0441Z" fill="#4338CA"/>
<path d="M38.0055 18.1397C38.7956 18.6234 39.5258 19.1988 40.1809 19.854C40.247 19.9201 40.3255 19.9725 40.4119 20.0083C40.4983 20.0441 40.5909 20.0625 40.6844 20.0625C40.7779 20.0625 40.8705 20.0441 40.9569 20.0083C41.0433 19.9725 41.1218 19.9201 41.188 19.854C41.2541 19.7878 41.3065 19.7093 41.3423 19.6229C41.3781 19.5365 41.3965 19.4439 41.3965 19.3504C41.3965 19.2569 41.3781 19.1643 41.3423 19.0779C41.3065 18.9915 41.2541 18.913 41.188 18.8469C40.4528 18.1122 39.6333 17.4671 38.7465 16.925C38.5856 16.8312 38.3944 16.8042 38.2138 16.8497C38.0332 16.8953 37.8776 17.0098 37.7804 17.1686C37.6832 17.3275 37.6522 17.5181 37.6939 17.6997C37.7356 17.8812 37.8467 18.0391 38.0035 18.1397H38.0055Z" fill="#4338CA"/>
<path d="M35.7484 17.071C35.8786 17.1158 36.0076 17.1638 36.1353 17.213C36.2229 17.2487 36.3167 17.2665 36.4113 17.2654C36.5058 17.2644 36.5992 17.2446 36.686 17.2071C36.7728 17.1696 36.8512 17.1152 36.9168 17.047C36.9823 16.9789 37.0336 16.8984 37.0677 16.8102C37.1018 16.722 37.118 16.6279 37.1154 16.5334C37.1127 16.4389 37.0913 16.3459 37.0523 16.2597C37.0133 16.1736 36.9575 16.0961 36.8883 16.0317C36.819 15.9674 36.7376 15.9175 36.6489 15.8849C36.5051 15.829 36.3604 15.7758 36.2147 15.7254C36.0366 15.6648 35.8417 15.6772 35.6727 15.7599C35.5037 15.8425 35.3743 15.9887 35.3127 16.1664C35.2511 16.3442 35.2623 16.5391 35.344 16.7086C35.4256 16.8781 35.571 17.0084 35.7484 17.071Z" fill="#4338CA"/>
<path d="M23.1297 20.0604C23.2232 20.0605 23.3159 20.0421 23.4023 20.0064C23.4888 19.9706 23.5673 19.9182 23.6335 19.852C24.7174 18.7619 26.0069 17.8977 27.4271 17.3094C28.8474 16.7211 30.3703 16.4204 31.9075 16.4246C32.443 16.4246 32.9778 16.4609 33.5083 16.5333C33.6955 16.5589 33.8851 16.5091 34.0356 16.395C34.186 16.2808 34.2849 16.1115 34.3106 15.9243C34.3362 15.7372 34.2864 15.5476 34.1722 15.3971C34.058 15.2467 33.8887 15.1477 33.7016 15.1221C33.107 15.041 32.5076 15.0002 31.9075 15C30.183 14.9957 28.4747 15.3335 26.8816 15.9938C25.2885 16.6541 23.8422 17.6239 22.6264 18.847C22.5268 18.9465 22.4591 19.0734 22.4316 19.2115C22.4042 19.3496 22.4183 19.4927 22.4722 19.6228C22.526 19.7528 22.6172 19.864 22.7343 19.9423C22.8513 20.0205 22.9889 20.0623 23.1297 20.0624V20.0604Z" fill="#4338CA"/>
<defs>
<filter id="filter0_d_1916_1503" x="0.578125" y="0" width="62.4883" height="67.2383" filterUnits="userSpaceOnUse" color-interpolation-filters="sRGB">
<feFlood flood-opacity="0" result="BackgroundImageFix"/>
<feColorMatrix in="SourceAlpha" type="matrix" values="0 0 0 0 0 0 0 0 0 0 0 0 0 0 0 0 0 0 127 0" result="hardAlpha"/>
<feOffset dy="4"/>
<feGaussianBlur stdDeviation="2"/>
<feComposite in2="hardAlpha" operator="out"/>
<feColorMatrix type="matrix" values="0 0 0 0 0 0 0 0 0 0 0 0 0 0 0 0 0 0 0.25 0"/>
<feBlend mode="normal" in2="BackgroundImageFix" result="effect1_dropShadow_1916_1503"/>
<feBlend mode="normal" in="SourceGraphic" in2="effect1_dropShadow_1916_1503" result="shape"/>
</filter>
</defs>
</svg>
