<svg width="58" height="61" viewBox="0 0 58 61" fill="none" xmlns="http://www.w3.org/2000/svg">
<rect x="1.03108" y="1.75764" width="55.3513" height="57.3876" rx="15.7353" fill="#313135" stroke="#343434" stroke-width="1.85121"/>
<path d="M45.0509 27.0117H12.6602V43.0688H45.0509V27.0117Z" fill="#219AE8"/>
<path d="M16.6914 39.7176V33.207H18.0163V38.612H21.3123V39.7176H16.6914Z" fill="#E9F1F8"/>
<path d="M23.918 39.715V33.1523H25.2429V39.715H23.918Z" fill="#E9F1F8"/>
<path d="M29.8849 39.715L27.5391 33.1523H28.9759L30.6369 38.0096L32.2437 33.1523H33.6496L31.2981 39.715H29.8849Z" fill="#E9F1F8"/>
<path d="M36.0312 39.715V33.1523H40.8971V34.2624H37.357V35.7175H40.6529V36.8231H37.357V38.6094H41.0236V39.715H36.0312Z" fill="#E9F1F8"/>
<path d="M28.8567 30.4321C30.6954 30.4321 32.186 28.9415 32.186 27.1028C32.186 25.264 30.6954 23.7734 28.8567 23.7734C27.0179 23.7734 25.5273 25.264 25.5273 27.1028C25.5273 28.9415 27.0179 30.4321 28.8567 30.4321Z" fill="white"/>
<path d="M18.3801 27.725H18.6515C18.8403 27.725 19.0215 27.6499 19.155 27.5164C19.2885 27.3829 19.3636 27.2017 19.3636 27.0129C19.3636 26.824 19.2885 26.6429 19.155 26.5093C19.0215 26.3758 18.8403 26.3008 18.6515 26.3008H18.3801C18.1912 26.3008 18.0101 26.3758 17.8765 26.5093C17.743 26.6429 17.668 26.824 17.668 27.0129C17.668 27.2017 17.743 27.3829 17.8765 27.5164C18.0101 27.6499 18.1912 27.725 18.3801 27.725Z" fill="#2DA0E9"/>
<path d="M22.8206 42.3578H13.373V27.725H15.6826C15.8715 27.725 16.0526 27.6499 16.1861 27.5164C16.3197 27.3829 16.3947 27.2017 16.3947 27.0129C16.3947 26.824 16.3197 26.6429 16.1861 26.5093C16.0526 26.3758 15.8715 26.3008 15.6826 26.3008H12.6613C12.4725 26.3009 12.2914 26.3759 12.1579 26.5095C12.0244 26.643 11.9493 26.824 11.9492 27.0129V43.0699C11.9492 43.2588 12.0242 43.4399 12.1578 43.5734C12.2913 43.707 12.4725 43.782 12.6613 43.782H22.8206C23.0095 43.782 23.1906 43.707 23.3241 43.5734C23.4577 43.4399 23.5327 43.2588 23.5327 43.0699C23.5327 42.8811 23.4577 42.6999 23.3241 42.5664C23.1906 42.4328 23.0095 42.3578 22.8206 42.3578Z" fill="#2DA0E9"/>
<path d="M45.0489 26.3008H34.4379C34.2491 26.3008 34.068 26.3758 33.9344 26.5093C33.8009 26.6429 33.7258 26.824 33.7258 27.0129C33.7258 27.2017 33.8009 27.3829 33.9344 27.5164C34.068 27.6499 34.2491 27.725 34.4379 27.725H44.3372V42.3578H25.5246C25.3357 42.3578 25.1546 42.4328 25.0211 42.5664C24.8875 42.6999 24.8125 42.8811 24.8125 43.0699C24.8125 43.2588 24.8875 43.4399 25.0211 43.5734C25.1546 43.707 25.3357 43.782 25.5246 43.782H45.0489C45.2378 43.782 45.4189 43.707 45.5524 43.5734C45.686 43.4399 45.761 43.2588 45.761 43.0699V27.0129C45.7609 26.824 45.6858 26.643 45.5523 26.5095C45.4188 26.3759 45.2377 26.3009 45.0489 26.3008Z" fill="#2DA0E9"/>
<path d="M21.311 38.6104H18.0163V33.207H16.6914V39.716H21.311V38.6104Z" fill="white"/>
<path d="M25.2429 33.1523H23.918V39.715H25.2429V33.1523Z" fill="white"/>
<path d="M31.2993 39.715L33.6496 33.1523H32.2437L30.6369 38.0096L28.9759 33.1523H27.5391L29.8849 39.715H31.2993Z" fill="white"/>
<path d="M40.8971 34.2624V33.1523H36.0312V39.715H41.0224V38.6094H37.3561V36.8231H40.6509V35.7175H37.3561V34.2624H40.8971Z" fill="white"/>
<path d="M32.8975 27.1006C32.8975 26.0985 32.5252 25.132 31.8528 24.3889C31.1804 23.6457 30.2559 23.1788 29.2587 23.0788C28.2616 22.9788 27.2628 23.2527 26.4562 23.8476C25.6496 24.4424 25.0927 25.3156 24.8936 26.2978H21.2941C21.1053 26.2978 20.9241 26.3728 20.7906 26.5064C20.6571 26.6399 20.582 26.821 20.582 27.0099C20.582 27.1988 20.6571 27.3799 20.7906 27.5134C20.9241 27.647 21.1053 27.722 21.2941 27.722H24.868C25.0273 28.7247 25.5583 29.6307 26.3554 30.2596C27.1525 30.8885 28.1572 31.1943 29.1694 31.1159C30.1817 31.0376 31.1274 30.581 31.8182 29.8369C32.5091 29.0929 32.8944 28.1159 32.8975 27.1006ZM30.7063 28.9513C30.2782 29.3791 29.7149 29.6453 29.1125 29.7044C28.5101 29.7635 27.9059 29.612 27.4027 29.2755C26.8995 28.9391 26.5285 28.4386 26.353 27.8593C26.1774 27.2801 26.2081 26.6579 26.4399 26.0987C26.6716 25.5395 27.0901 25.078 27.624 24.7928C28.1578 24.5075 28.7741 24.4162 29.3677 24.5344C29.9614 24.6526 30.4957 24.9729 30.8796 25.4408C31.2636 25.9088 31.4734 26.4954 31.4734 27.1006C31.4745 27.4448 31.4072 27.7857 31.2756 28.1037C31.1439 28.4216 30.9504 28.7103 30.7063 28.9529V28.9513Z" fill="#2DA0E9"/>
<path d="M34.9457 22.0207C35.0119 21.9546 35.0644 21.8761 35.1002 21.7897C35.136 21.7033 35.1545 21.6107 35.1545 21.5171C35.1545 21.4236 35.136 21.331 35.1002 21.2446C35.0644 21.1582 35.0119 21.0797 34.9457 21.0136C33.3312 19.3992 31.1415 18.4922 28.8584 18.4922C26.5752 18.4922 24.3855 19.3992 22.771 21.0136C22.7049 21.0797 22.6525 21.1582 22.6167 21.2445C22.5809 21.3309 22.5625 21.4235 22.5625 21.5169C22.5625 21.6104 22.5809 21.703 22.6167 21.7893C22.6525 21.8757 22.7049 21.9542 22.771 22.0203C22.8371 22.0864 22.9156 22.1388 23.0019 22.1746C23.0883 22.2104 23.1809 22.2288 23.2743 22.2288C23.3678 22.2288 23.4604 22.2104 23.5467 22.1746C23.6331 22.1388 23.7116 22.0864 23.7777 22.0203C25.1252 20.673 26.9527 19.9162 28.8581 19.9162C30.7636 19.9162 32.5911 20.673 33.9386 22.0203C34.0722 22.1538 34.2532 22.2288 34.4421 22.2289C34.6309 22.229 34.8121 22.1541 34.9457 22.0207Z" fill="#2DA0E9"/>
<path d="M34.9547 17.1162C35.7449 17.6 36.475 18.1754 37.1301 18.8305C37.1962 18.8967 37.2747 18.9491 37.3611 18.9849C37.4475 19.0207 37.5401 19.0391 37.6336 19.0391C37.7272 19.0391 37.8198 19.0207 37.9062 18.9849C37.9926 18.9491 38.0711 18.8967 38.1372 18.8305C38.2033 18.7644 38.2558 18.6859 38.2916 18.5995C38.3273 18.5131 38.3458 18.4205 38.3458 18.327C38.3458 18.2335 38.3273 18.1409 38.2916 18.0545C38.2558 17.9681 38.2033 17.8896 38.1372 17.8234C37.402 17.0888 36.5825 16.4437 35.6957 15.9016C35.5348 15.8078 35.3436 15.7808 35.163 15.8263C34.9824 15.8718 34.8268 15.9863 34.7296 16.1452C34.6325 16.3041 34.6014 16.4947 34.6431 16.6762C34.6848 16.8577 34.7959 17.0157 34.9527 17.1162H34.9547Z" fill="#2DA0E9"/>
<path d="M32.6976 16.0476C32.8278 16.0923 32.9568 16.1404 33.0845 16.1896C33.1721 16.2252 33.2659 16.243 33.3605 16.242C33.455 16.241 33.5484 16.2212 33.6352 16.1837C33.722 16.1462 33.8005 16.0917 33.866 16.0236C33.9316 15.9555 33.9829 15.8749 34.017 15.7868C34.0511 15.6986 34.0673 15.6045 34.0646 15.51C34.0619 15.4155 34.0405 15.3224 34.0015 15.2363C33.9625 15.1502 33.9068 15.0726 33.8375 15.0083C33.7682 14.9439 33.6868 14.894 33.5981 14.8614C33.4543 14.8056 33.3096 14.7524 33.1639 14.7019C32.9858 14.6414 32.7909 14.6538 32.6219 14.7364C32.4529 14.8191 32.3235 14.9652 32.2619 15.143C32.2003 15.3207 32.2116 15.5156 32.2932 15.6851C32.3748 15.8546 32.5202 15.9849 32.6976 16.0476Z" fill="#2DA0E9"/>
<path d="M20.0789 19.0369C20.1725 19.037 20.2651 19.0187 20.3516 18.9829C20.438 18.9472 20.5165 18.8947 20.5827 18.8286C21.6666 17.7385 22.9561 16.8743 24.3764 16.286C25.7966 15.6976 27.3195 15.3969 28.8568 15.4012C29.3922 15.4012 29.927 15.4375 30.4575 15.5098C30.6447 15.5355 30.8343 15.4857 30.9848 15.3715C31.1352 15.2573 31.2341 15.088 31.2598 14.9009C31.2854 14.7138 31.2356 14.5241 31.1214 14.3737C31.0072 14.2232 30.838 14.1243 30.6508 14.0987C30.0562 14.0176 29.4569 13.9768 28.8568 13.9766C27.1322 13.9723 25.4239 14.31 23.8308 14.9703C22.2377 15.6307 20.7914 16.6004 19.5756 17.8235C19.4761 17.9231 19.4083 18.05 19.3809 18.188C19.3534 18.3261 19.3675 18.4693 19.4214 18.5993C19.4752 18.7294 19.5665 18.8406 19.6835 18.9188C19.8005 18.9971 19.9381 19.0389 20.0789 19.039V19.0369Z" fill="#2DA0E9"/>
</svg>
