<svg width="62" height="63" viewBox="0 0 62 63" fill="none" xmlns="http://www.w3.org/2000/svg">
<path fill-rule="evenodd" clip-rule="evenodd" d="M30.9317 6.87598C25.9672 6.87598 21.9428 10.9005 21.9428 15.865C21.9428 18.7458 23.2984 21.3088 25.4026 22.9527L16.9411 37.7603C14.6298 35.8287 12.7239 33.4277 11.3699 30.7032C11.0543 30.0681 10.2836 29.8092 9.64848 30.1246C9.01337 30.4402 8.75439 31.211 9.07 31.8461C10.6508 35.0272 12.9061 37.8148 15.649 40.0215L9.27056 51.1837C8.91868 51.7996 9.13262 52.584 9.74839 52.9358C10.3642 53.2877 11.1486 53.0737 11.5004 52.4581L17.7438 41.5321C21.5461 43.9797 26.0728 45.4002 30.9317 45.4002C35.7909 45.4002 40.3175 43.9797 44.1199 41.5324L50.3631 52.4581C50.715 53.0737 51.4993 53.2877 52.1152 52.9358C52.7308 52.584 52.9447 51.7996 52.5929 51.1837L46.2146 40.0217C48.9575 37.8148 51.2127 35.0272 52.7937 31.8461C53.1094 31.211 52.8502 30.4402 52.2151 30.1246C51.58 29.8092 50.8092 30.0681 50.4938 30.7032C49.1398 33.4277 47.2339 35.8287 44.9225 37.7603L36.461 22.9528C38.567 21.3076 39.9207 18.7444 39.9207 15.865C39.9207 10.9005 35.8962 6.87598 30.9317 6.87598ZM19.02 39.2987L27.6318 24.2284C28.6542 24.6323 29.768 24.854 30.9317 24.854C32.097 24.854 33.2103 24.6323 34.232 24.2288L42.8437 39.299C39.4179 41.5337 35.3261 42.8319 30.9317 42.8319C26.5374 42.8319 22.4458 41.5337 19.02 39.2987Z" fill="white"/>
</svg>
