<svg
              xmlns="http://www.w3.org/2000/svg"
              width="20"
              height="23"
              viewBox="0 0 25 28"
              fill="none"
            >
              <path
                d="M15.5136 9.77949L15.5127 9.77591C15.7303 9.71682 15.8735 9.48225 15.6998 9.20917C15.6622 9.14919 15.6175 9.07309 15.5691 8.98266C15.5691 8.98266 15.5691 8.98266 15.5691 8.98176C15.3775 8.62363 15.1232 8.04257 14.9388 7.35765C15.4751 8.44547 16.3659 9.46613 16.8817 8.66482C17.0043 8.53679 17.0016 8.31117 16.7581 8.11957C16.3758 7.81874 16.0571 7.44629 15.8109 7.05325C15.6801 6.84553 15.5691 6.63155 15.4814 6.41936L15.9416 6.36475C16.348 6.89477 17.0061 7.46599 17.7859 8.11868C18.0778 9.42853 19.9338 11.5701 21.2839 13.3805C24.6942 17.9538 23.7819 22.1985 24.5903 22.314C24.2188 24.7053 23.3664 25.9955 21.9492 26.4378C21.061 26.7153 19.7556 27.0762 18.1315 27.368C16.5074 27.6599 14.5637 27.8819 12.3979 27.8819C12.3979 27.8819 12.3979 27.8819 12.397 27.8819C12.397 27.8819 12.397 27.8819 12.3961 27.8819C8.06545 27.8819 4.62205 26.9929 2.84484 26.4378C2.56909 26.3518 2.31481 26.2337 2.08203 26.0815C10.011 28.0637 14.7893 25.581 16.6166 22.5449C18.1637 19.9754 19.2981 15.9393 15.9263 11.6221C15.2325 10.733 14.7203 9.77681 14.3622 8.80718C14.6586 9.43569 15.0516 9.90305 15.5136 9.77949Z"
                fill="#10904D"
              />
              <path
                d="M14.3622 8.80738C14.0228 7.89416 13.8196 6.9684 13.7256 6.07845L14.0175 6.06592C14.0273 6.7007 14.15 7.39457 14.3398 8.02935C14.5108 8.60683 14.7364 9.13686 14.9826 9.5299C15.1277 9.76179 15.3425 9.82267 15.5126 9.77612L15.5135 9.7797C15.0516 9.90325 14.6585 9.4359 14.3622 8.80738Z"
                fill="#10904D"
              />
              <path
                d="M14.9505 9.1062C15.0355 9.19753 15.1376 9.28616 15.2611 9.29691C15.3471 9.30496 15.4348 9.27094 15.4939 9.20827C15.5494 9.14918 15.5781 9.06412 15.5691 8.98265C15.6175 9.07308 15.6622 9.14918 15.6998 9.20917C15.8735 9.48224 15.7303 9.71681 15.5127 9.7759C15.3426 9.82246 15.1277 9.76158 14.9827 9.52969C14.7365 9.13664 14.5108 8.60662 14.3398 8.02913L14.3461 8.02734C14.4562 8.42934 14.6657 8.80359 14.9505 9.1062Z"
                fill="white"
              />
              <path
                d="M14.9389 7.35795C15.1233 8.04287 15.3776 8.62393 15.5692 8.98206C15.5692 8.98295 15.5692 8.98295 15.5692 8.98295C15.5781 9.06443 15.5495 9.14948 15.494 9.20857C15.4349 9.27124 15.3471 9.30527 15.2612 9.29721C15.1376 9.28647 15.0356 9.19783 14.9505 9.10651C14.6658 8.80389 14.4563 8.42964 14.3462 8.02765L14.3399 8.02944C14.1501 7.39466 14.0274 6.70079 14.0176 6.066L14.621 6.04004C14.6595 6.20478 14.707 6.36235 14.7607 6.51277C14.8037 6.80554 14.8654 7.09025 14.9389 7.35795Z"
                fill="white"
              />
              <path
                d="M15.4816 6.41933C15.5694 6.63152 15.6804 6.84551 15.8111 7.05322C15.8783 7.19826 15.9794 7.33077 16.0824 7.45522C16.2301 7.63428 16.3877 7.81245 16.4728 8.02733C16.5229 8.15356 16.5453 8.29771 16.4951 8.42395C16.4513 8.53229 16.3438 8.61913 16.2301 8.62092C15.846 8.33442 15.1495 7.61458 14.7609 6.51245C14.7376 6.35577 14.7197 6.19729 14.709 6.03614L15.3366 6.00928C15.3751 6.14358 15.4234 6.28145 15.4816 6.41933Z"
                fill="white"
              />
              <path
                d="M14.7603 6.5127C15.1488 7.61483 15.8454 8.33467 16.2295 8.62117C16.2384 8.62833 16.2474 8.6346 16.2554 8.64087C16.5142 8.82799 16.7595 8.79486 16.8813 8.66504C16.3656 9.46635 15.4747 8.44569 14.9384 7.35788C14.865 7.09018 14.8032 6.80546 14.7603 6.5127Z"
                fill="#10904D"
              />
              <path
                d="M15.811 7.05371C16.0572 7.44676 16.376 7.81921 16.7583 8.12003C17.0018 8.31163 17.0045 8.53725 16.8818 8.66528C16.7601 8.79511 16.5148 8.82823 16.256 8.64111C16.248 8.63484 16.239 8.62858 16.23 8.62141C16.3437 8.61962 16.4512 8.53278 16.4951 8.42444C16.5452 8.2982 16.5228 8.15406 16.4727 8.02782C16.3876 7.81294 16.23 7.63477 16.0823 7.45571C15.9794 7.33126 15.8782 7.19875 15.811 7.05371Z"
                fill="white"
              />
              <path
                d="M13.7253 6.07835L8.91113 6.28427C8.9935 6.17146 9.06334 6.06045 9.11974 5.95032C9.45817 5.84378 10.0133 5.77573 10.9399 5.73813C11.7144 5.70679 12.7404 5.68978 13.6894 5.65576C13.6984 5.79543 13.71 5.936 13.7253 6.07835Z"
                fill="white"
              />
              <path
                d="M14.0279 5.64307C14.018 5.78005 14.0145 5.92151 14.0171 6.06566L13.7253 6.07819C13.71 5.93584 13.6984 5.79527 13.6895 5.6556C13.8032 5.65202 13.9169 5.64754 14.0279 5.64307Z"
                fill="white"
              />
              <path
                d="M14.6949 5.57499L14.5311 5.57767C14.5186 5.4971 14.5087 5.41473 14.5024 5.33057H15.2214C15.2232 5.40756 15.2303 5.48814 15.242 5.57051C15.0728 5.58573 14.8892 5.59916 14.6949 5.60991C14.6949 5.59827 14.6949 5.58663 14.6949 5.57499Z"
                fill="white"
              />
              <path
                d="M15.3362 6.00951L14.7086 6.03637C14.6987 5.8958 14.6934 5.75344 14.6952 5.61019C14.8894 5.59945 15.073 5.58602 15.2422 5.5708C15.261 5.71137 15.2923 5.85909 15.3362 6.00951Z"
                fill="white"
              />
              <path
                d="M8.6709 6.23222C8.74879 6.11762 8.8804 6.02451 9.12035 5.9502C9.06394 6.06032 8.99411 6.17134 8.91174 6.28415L8.89562 6.28505C8.81415 6.28863 8.73715 6.26893 8.6709 6.23222Z"
                fill="white"
              />
              <path
                d="M8.85757 5.41048L9.28553 5.39258C9.27479 5.57522 9.21749 5.76055 9.1199 5.95036C8.87995 6.02467 8.74834 6.11779 8.67045 6.23239C8.53883 6.16166 8.44572 6.02557 8.43945 5.8662C8.43945 5.85993 8.43945 5.85277 8.43945 5.8465C8.43945 5.61551 8.62389 5.42123 8.85757 5.41048Z"
                fill="white"
              />
              <path
                d="M15.5278 5.54297C15.5555 5.6907 15.6137 5.84111 15.697 5.99421L15.3362 6.00943C15.2923 5.85902 15.261 5.71129 15.2422 5.57072C15.3425 5.56267 15.4383 5.55371 15.5278 5.54297Z"
                fill="white"
              />
              <path
                d="M15.8887 5.11078C16.0713 5.10272 16.2325 5.20926 16.305 5.36505C16.1966 5.44205 15.9155 5.49935 15.5278 5.54322C15.5135 5.47159 15.5063 5.40176 15.5063 5.33103C15.5063 5.26119 15.5099 5.19315 15.5162 5.12689L15.8887 5.11078Z"
                fill="white"
              />
              <path
                d="M14.6209 6.03994L14.0175 6.06591C14.0148 5.92176 14.0184 5.7803 14.0282 5.64331C14.2028 5.63615 14.3729 5.62809 14.5367 5.61914C14.5591 5.76418 14.5869 5.90475 14.6209 6.03994Z"
                fill="white"
              />
              <path
                d="M12.3961 5.33057H12.3979H13.6719C13.6764 5.438 13.6818 5.54634 13.6898 5.65557C12.7408 5.68959 11.7148 5.7066 10.9403 5.73794C10.0136 5.77554 9.45855 5.84358 9.12012 5.95013C9.21771 5.76032 9.27501 5.57499 9.28575 5.39234L10.7254 5.33057H12.3961Z"
                fill="white"
              />
              <path
                d="M15.5274 5.54276C15.4379 5.5535 15.3421 5.56245 15.2418 5.57051C15.2301 5.48814 15.223 5.40756 15.2212 5.33057H15.5059C15.5059 5.4013 15.5131 5.47113 15.5274 5.54276Z"
                fill="white"
              />
              <path
                d="M14.6956 5.5752C14.6956 5.58683 14.6956 5.59847 14.6956 5.61011C14.6437 5.61369 14.5908 5.61638 14.5371 5.61907C14.5353 5.60564 14.5335 5.59221 14.5317 5.57788L14.6956 5.5752Z"
                fill="white"
              />
              <path
                d="M15.697 5.99416C15.6138 5.84106 15.5556 5.69064 15.5278 5.54291C15.9155 5.49904 16.1966 5.44174 16.305 5.36475C16.3282 5.41488 16.3417 5.47039 16.3444 5.52859C16.3444 5.53486 16.3444 5.54202 16.3444 5.54829C16.3444 5.78017 16.1599 5.97446 15.9262 5.98431L15.697 5.99416Z"
                fill="white"
              />
              <path
                d="M14.531 5.57764C14.5328 5.59196 14.5346 5.60539 14.5364 5.61882C14.3725 5.62778 14.2024 5.63583 14.0278 5.643C14.0296 5.6233 14.0305 5.6045 14.0323 5.5857L14.531 5.57764Z"
                fill="white"
              />
              <path
                d="M14.7085 6.03652L14.6208 6.0401C14.5868 5.90491 14.559 5.76435 14.5366 5.61931C14.5903 5.61662 14.6432 5.61393 14.6951 5.61035C14.6933 5.7536 14.6987 5.89596 14.7085 6.03652Z"
                fill="white"
              />
              <path
                d="M14.0327 5.58573C14.0309 5.60453 14.03 5.62334 14.0282 5.64303C13.9172 5.64751 13.8035 5.65199 13.6898 5.65557C13.6817 5.54634 13.6764 5.438 13.6719 5.33057H14.5027C14.509 5.41473 14.5188 5.4971 14.5314 5.57767L14.0327 5.58573Z"
                fill="white"
              />
              <path
                d="M13.6678 5.17128L9.92987 5.33065H9.28793C9.28793 5.23575 9.28166 5.14353 9.27002 5.05489C10.0087 5.0146 10.7473 4.97431 11.4859 4.93492C12.2129 4.89552 12.9408 4.85524 13.6651 4.78271C13.6642 4.91075 13.6651 5.04057 13.6678 5.17128Z"
                fill="white"
              />
              <path
                d="M14.7164 4.646L14.7576 4.8743C14.6475 4.90385 14.5481 4.97547 14.4845 5.08918C14.4854 5.10529 14.4863 5.12141 14.4872 5.13663L13.6671 5.17155C13.6644 5.04083 13.6635 4.91101 13.6644 4.78298C13.8963 4.7597 14.1273 4.73374 14.3574 4.7024C14.4765 4.68628 14.5973 4.66838 14.7164 4.646Z"
                fill="white"
              />
              <path
                d="M9.28746 5.33045C9.28746 5.3394 9.28746 5.34925 9.28657 5.3582L8.98485 5.37073C8.79414 5.37969 8.62493 5.26151 8.55957 5.09229C8.79593 5.07976 9.03319 5.06722 9.26956 5.05469C9.2812 5.14332 9.28746 5.23554 9.28746 5.33045Z"
                fill="white"
              />
              <path
                d="M8.5293 4.93472C8.5293 4.70283 8.71373 4.50765 8.94831 4.49691L9.11305 4.48975C9.18915 4.66523 9.24376 4.85325 9.26973 5.05469C9.03336 5.06723 8.7961 5.07976 8.55974 5.0923C8.54183 5.04842 8.53109 5.00187 8.5293 4.95263C8.5293 4.94636 8.5293 4.94099 8.5293 4.93472Z"
                fill="white"
              />
              <path
                d="M15.2361 5.02234C15.0991 4.87909 14.9165 4.83253 14.758 4.87372L14.7168 4.64541C14.9675 4.59886 15.2137 4.53081 15.4384 4.41173C15.5441 4.35622 15.6452 4.28639 15.7348 4.2076L15.8297 4.20312C15.6685 4.46903 15.5566 4.7618 15.5199 5.09218L15.2271 5.10471C15.2289 5.07696 15.2325 5.0492 15.2361 5.02234Z"
                fill="white"
              />
              <path
                d="M15.7346 4.20794L13.6816 4.29478C13.6888 4.16228 13.6987 4.03066 13.7112 3.90174C14.1051 3.88562 14.4391 3.87398 14.6441 3.86861C15.406 3.84891 15.8456 3.26338 16.5288 2.76558C17.1985 2.27763 18.4671 1.34023 17.8028 0.402832C18.3973 0.684857 18.6972 1.34292 18.0517 2.0547C17.4366 2.73245 16.3649 3.31889 15.8295 4.20346L15.7346 4.20794Z"
                fill="#10904D"
              />
              <path
                d="M15.236 5.02238C15.2325 5.04924 15.2289 5.077 15.2271 5.10475L14.4875 5.13609C14.4867 5.12087 14.4858 5.10475 14.4849 5.08864C14.5484 4.97493 14.6478 4.90331 14.7579 4.87376C14.9164 4.83258 15.0991 4.87913 15.236 5.02238Z"
                fill="white"
              />
              <path
                d="M13.6816 4.29485L15.7345 4.20801C15.645 4.2868 15.5438 4.35663 15.4382 4.41214C15.2135 4.53122 14.9672 4.59926 14.7166 4.64582C14.5975 4.6682 14.4766 4.68611 14.3575 4.70222C14.1274 4.73356 13.8964 4.75952 13.6646 4.7828C13.6663 4.61806 13.6717 4.45512 13.6816 4.29485Z"
                fill="white"
              />
              <path
                d="M9.11279 4.4901L13.6816 4.29492C13.6718 4.45518 13.6664 4.61813 13.6646 4.78287C12.9403 4.85539 12.2124 4.89568 11.4854 4.93507C10.7467 4.97447 10.0081 5.01476 9.26947 5.05505C9.24351 4.8536 9.1889 4.66558 9.11279 4.4901Z"
                fill="white"
              />
              <path
                d="M13.6676 5.17139C13.6676 5.18303 13.6676 5.19377 13.6685 5.20541L10.7256 5.33075H9.92969L13.6676 5.17139Z"
                fill="#10904D"
              />
              <path
                d="M17.803 0.40275C18.4674 1.34015 17.1987 2.27755 16.529 2.7655C15.8459 3.26329 15.4063 3.84883 14.6443 3.86853C14.4393 3.8739 14.1054 3.88554 13.7114 3.90166C13.7651 3.33223 13.8636 2.79952 13.9988 2.32142C15.9766 1.81825 17.1772 0.751029 16.6508 0.456469C16.6051 0.4314 16.5594 0.407227 16.5147 0.384844C16.9534 0.195036 17.4351 0.226372 17.803 0.40275Z"
                fill="#10904D"
              />
              <path
                d="M15.9263 11.6223C19.2981 15.9395 18.1637 19.9756 16.6166 22.5452C14.7892 25.5812 10.0109 28.0639 2.08197 26.0817C1.24574 25.5373 0.675425 24.5578 0.343262 23.0582C1.55821 24.4244 5.66325 23.5193 8.27758 18.6756C11.5088 12.6895 9.63578 7.24506 7.66697 7.55753C8.03405 7.237 8.35636 6.93618 8.61511 6.64878C9.43433 6.79114 13.5492 6.57089 13.7569 6.53418C13.7721 6.9899 13.9924 8.02399 14.3622 8.80739C14.7203 9.77702 15.2324 10.7332 15.9263 11.6223Z"
                fill="#10904D"
              />
              <path
                d="M7.77472 0.555018C8.34504 1.84696 9.07741 2.66528 12.1063 2.58381C12.7867 2.56501 13.426 2.46742 13.999 2.32148C13.8638 2.79958 13.7653 3.3323 13.7116 3.90172C12.6408 3.9447 11.1268 4.01901 10.5636 4.08347C9.87066 4.16226 9.12307 4.09153 8.31997 3.43347C8.31728 3.43168 8.3146 3.42899 8.31191 3.4272C8.23133 3.3511 8.14807 3.27679 8.06391 3.20427C7.59834 2.80227 7.09517 2.44325 6.74242 2.05468C5.74235 0.951644 6.94118 0.140485 8.11226 0.36521C8.00124 0.42072 7.88843 0.484288 7.77472 0.555018Z"
                fill="#10904D"
              />
              <path
                d="M13.5953 0.415221C13.5595 0.434023 13.5273 0.45372 13.4969 0.472522C13.0035 0.779616 12.3517 1.00971 11.315 0.478789C11.2612 0.451034 11.2075 0.42507 11.1538 0.399106C11.871 0.150207 12.4511 -0.128237 13.1539 0.211089C13.3088 0.2854 13.4548 0.353444 13.5953 0.415221Z"
                fill="#10904D"
              />
              <path
                d="M14.4871 5.13672C14.4871 5.14836 14.488 5.16 14.4898 5.17074L13.6679 5.20566C13.667 5.19402 13.667 5.18328 13.667 5.17164L14.4871 5.13672Z"
                fill="#10904D"
              />
              <path
                d="M15.2268 5.10498C15.225 5.11662 15.2242 5.12736 15.2233 5.139L14.49 5.17034C14.4882 5.1596 14.4873 5.14796 14.4873 5.13632L15.2268 5.10498Z"
                fill="white"
              />
              <path
                d="M17.7856 8.11914C20.6229 10.4935 25.0655 13.9351 24.7817 20.274C24.7476 21.0278 24.6841 21.7065 24.5901 22.3144C23.7816 22.1989 24.6939 17.9542 21.2837 13.3809C19.9335 11.5706 18.0775 9.42899 17.7856 8.11914Z"
                fill="#10904D"
              />
              <path
                d="M13.7109 3.90136C13.6984 4.03028 13.6886 4.1619 13.6814 4.2944L9.11259 4.48958C8.938 4.08669 8.64881 3.74468 8.31934 3.43311C9.12244 4.09116 9.87003 4.1619 10.563 4.08311C11.1262 4.01864 12.6401 3.94433 13.7109 3.90136Z"
                fill="#10904D"
              />
              <path
                d="M15.2267 5.10482L15.5195 5.09229C15.5177 5.10303 15.5168 5.11467 15.5159 5.12631L15.2231 5.13884C15.224 5.1272 15.2249 5.11646 15.2267 5.10482Z"
                fill="#10904D"
              />
              <path
                d="M14.6782 0.771221C14.406 1.17411 14.1724 1.70235 13.9987 2.32102C13.4257 2.46695 12.7864 2.56454 12.106 2.58335C9.0771 2.66482 8.34473 1.8465 7.77441 0.554554C7.88812 0.483824 8.00093 0.420256 8.11195 0.364746C8.20864 0.382652 8.30444 0.407721 8.39935 0.440848C9.6125 0.862543 10.4487 0.644981 11.1533 0.398768C11.2071 0.424732 11.2608 0.450696 11.3145 0.478451C12.3513 1.00938 13.0031 0.779278 13.4964 0.472184C13.5268 0.453382 13.5591 0.433685 13.5949 0.414884C14.0005 0.593052 14.3505 0.71392 14.6782 0.771221Z"
                fill="#10904D"
              />
              <path
                d="M15.2236 5.139L15.5163 5.12646C15.5101 5.19272 15.5065 5.26076 15.5065 5.3306H15.2218C15.2191 5.26434 15.22 5.20078 15.2236 5.139Z"
                fill="white"
              />
              <path
                d="M15.9788 4.19722C16.2188 4.18647 16.4238 4.37449 16.4345 4.61533C16.4345 4.6216 16.4345 4.62697 16.4345 4.63324C16.4345 4.86512 16.2501 5.0603 16.0155 5.07105L15.5195 5.09253C15.5562 4.76216 15.6682 4.46939 15.8293 4.20348L15.9788 4.19722Z"
                fill="white"
              />
              <path
                d="M10.7256 5.33091L13.6685 5.20557C13.6694 5.24675 13.6703 5.28883 13.6721 5.33091H12.398H12.3963H10.7256Z"
                fill="white"
              />
              <path
                d="M9.28703 5.33057H9.92897L9.28613 5.35832C9.28703 5.34937 9.28703 5.33952 9.28703 5.33057Z"
                fill="white"
              />
              <path
                d="M13.7571 6.53384C13.5493 6.57055 9.43445 6.7908 8.61523 6.64844C8.72715 6.52489 8.82653 6.40312 8.91158 6.28405L13.7257 6.07812C13.8197 6.96807 14.023 7.89383 14.3623 8.80706C13.9925 8.02365 13.7723 6.98956 13.7571 6.53384Z"
                fill="#10904D"
              />
              <path
                d="M14.5029 5.33067H13.672C13.6702 5.28859 13.6694 5.24651 13.6685 5.20533L14.4904 5.17041C14.493 5.22413 14.4966 5.27785 14.5029 5.33067Z"
                fill="white"
              />
              <path
                d="M15.2217 5.33076H14.5028C14.4965 5.27793 14.4929 5.22422 14.4902 5.1705L15.2235 5.13916C15.2199 5.20094 15.219 5.2645 15.2217 5.33076Z"
                fill="white"
              />
              <path
                d="M15.4815 6.41942C15.4233 6.28154 15.3749 6.14366 15.3364 6.00936L15.6972 5.99414C15.7635 6.1159 15.8459 6.23946 15.9417 6.3648L15.4815 6.41942Z"
                fill="#10904D"
              />
              <path
                d="M11.1532 0.399279C10.4486 0.645492 9.61237 0.863054 8.39921 0.441359C8.30431 0.408232 8.20851 0.383163 8.11182 0.365257C9.25514 -0.212223 10.2472 -0.0313694 11.1532 0.399279Z"
                fill="#10904D"
              />
              <path
                d="M9.92938 5.33057H10.7253L9.28564 5.39234C9.28654 5.3807 9.28654 5.36906 9.28654 5.35832L9.92938 5.33057Z"
                fill="#10904D"
              />
              <path
                d="M13.9985 2.32183C14.1722 1.70316 14.4059 1.17493 14.6781 0.772032C15.2582 0.874098 15.7686 0.777403 16.3953 0.441659C16.4347 0.421066 16.4741 0.40137 16.5144 0.385254C16.5591 0.407637 16.6048 0.43181 16.6505 0.456879C17.1769 0.751439 15.9763 1.81866 13.9985 2.32183Z"
                fill="#10904D"
              />
              <path
                d="M14.6781 0.771986C14.3504 0.714686 14.0003 0.593817 13.5947 0.415649C14.1248 0.121984 15.2573 -0.249573 16.5144 0.385208C16.4741 0.401324 16.4347 0.421021 16.3953 0.441613C15.7686 0.777358 15.2582 0.874052 14.6781 0.771986Z"
                fill="#10904D"
              />
              <path
                d="M7.66705 7.55726C9.63586 7.24479 11.5089 12.6892 8.27766 18.6753C5.66333 23.519 1.55829 24.4242 0.343343 23.0579C0.169652 22.2754 0.0613177 21.3514 0.0129705 20.2735C-0.294124 13.4171 4.92738 9.95045 7.66705 7.55726Z"
                fill="#10904D"
              />
              <path
                d="M14.7088 6.03662C14.7196 6.19778 14.7375 6.35625 14.7608 6.51293C14.707 6.36252 14.6596 6.20494 14.6211 6.0402L14.7088 6.03662Z"
                fill="white"
              />
              <path
                opacity="0.26"
                d="M13.3211 15.8237V15.314H12.5214H9.62207V16.0177C11.0615 16.0177 11.4325 16.3506 11.5283 16.773H9.62207V17.279H11.5609C11.541 17.8757 11.1026 18.4175 9.64913 18.4175V18.995L10.1954 19.6859L11.7603 21.6655H12.6083L10.7366 19.1782L10.5513 18.9319C10.5513 18.9319 10.7612 18.9184 11.0397 18.8371C11.5661 18.6834 12.3373 18.287 12.3964 17.2791H13.321V16.7731H12.3681C12.35 16.6655 12.3249 16.5618 12.2942 16.4643C12.2038 16.1772 12.0649 15.9438 11.9135 15.8238H12.4463H13.3211V15.8237Z"
                fill="#10904D"
              />
              <path
                d="M10.7495 18.716L12.7954 21.3041H13.9041L11.4571 18.0522C11.2339 18.2862 10.9975 18.508 10.7495 18.716Z"
                fill="white"
              />
              <path
                d="M11.854 17.606C12.5422 17.405 13.5504 16.8868 13.6278 15.5691H14.8365V14.9075H13.5908C13.5671 14.7669 13.5342 14.6314 13.4941 14.5039C13.2286 15.416 12.8157 16.2854 12.2697 17.063C12.1387 17.2496 11.9996 17.4305 11.854 17.606Z"
                fill="white"
              />
              <path
                d="M14.8368 13.6664V13H13.7914C13.7674 13.2233 13.7347 13.4456 13.6934 13.6664H14.8368Z"
                fill="white"
              />
              <path
                d="M12.9959 13.6664H13.6925C13.7338 13.4456 13.7665 13.2233 13.7905 13H10V13.92C11.8818 13.92 12.3668 14.3552 12.4921 14.9075H10V15.569H12.5347C12.5086 16.349 11.9356 17.0574 10.0354 17.0574V17.8123L10.7495 18.7157C10.9974 18.5077 11.2339 18.286 11.4572 18.0518L11.2149 17.7298C11.2149 17.7298 11.4894 17.7121 11.8534 17.6059C11.999 17.4304 12.1381 17.2496 12.2691 17.063C12.815 16.2854 13.228 15.4161 13.4936 14.5038C13.3754 14.1285 13.1938 13.8234 12.9959 13.6664Z"
                fill="white"
              />
            </svg>