<svg width="21" height="21" viewBox="0 0 21 21" fill="none" xmlns="http://www.w3.org/2000/svg">
<path d="M10.692 10.4361H19.1535C19.1535 12.1097 18.6573 13.7456 17.7275 15.1371C16.7978 16.5286 15.4762 17.6132 13.9301 18.2536C12.384 18.894 10.6826 19.0616 9.04125 18.7351C7.39987 18.4086 5.89217 17.6027 4.7088 16.4194C3.52543 15.236 2.71955 13.7283 2.39306 12.0869C2.06657 10.4455 2.23413 8.7442 2.87457 7.19806C3.515 5.65191 4.59954 4.3304 5.99103 3.40064C7.38252 2.47087 9.01848 1.97461 10.692 1.97461V10.4361Z" fill="#676F7C"/>
<path d="M12.5381 8.74377V0.282227C13.6493 0.282227 14.7496 0.501091 15.7762 0.926323C16.8028 1.35155 17.7356 1.97483 18.5213 2.76055C19.307 3.54628 19.9303 4.47907 20.3555 5.50567C20.7808 6.53228 20.9996 7.63258 20.9996 8.74377H12.5381Z" fill="#676F7C"/>
</svg>
