<svg width="60" height="60" viewBox="0 0 60 60" fill="none" xmlns="http://www.w3.org/2000/svg">
<g clip-path="url(#clip0_1294_494)">
<path d="M40.7513 40.5709C39.7672 40.5117 37.401 40.6519 35.0314 41.1021C33.6606 39.7147 32.4736 37.967 31.5931 36.5256C34.4147 28.4125 32.6277 26.1064 30.2224 26.1064C28.3334 26.1064 27.3903 28.0999 27.6002 30.3023C27.7063 31.4111 28.6452 33.7406 29.801 35.9535C29.092 37.8182 27.8267 40.9698 26.5708 43.2506C25.1007 43.6973 23.8397 44.1938 22.9348 44.6126C18.4272 46.7088 18.065 49.5079 19.0029 50.6939C20.7838 52.947 24.5783 51.003 28.3857 44.1937C30.9923 43.4525 34.4218 42.465 34.7309 42.465C34.7665 42.465 34.8154 42.4764 34.872 42.4946C36.7722 44.1702 39.0165 46.0888 40.8636 46.3413C43.5364 46.7088 45.0578 44.7703 44.9524 43.5649C44.8478 42.3588 44.1433 40.7746 40.7513 40.5709ZM23.8781 47.9157C22.7764 49.2257 20.9945 50.4821 20.3657 50.0643C19.7361 49.6454 19.6315 48.44 21.0476 47.0763C22.4628 45.7143 24.8316 45.0071 25.1877 44.8747C25.6085 44.718 25.713 44.8747 25.713 45.0846C25.713 45.2945 24.9788 46.6043 23.8781 47.9157ZM28.7017 30.3014C28.5964 28.9898 28.8576 27.7324 29.9593 27.5756C31.0592 27.4172 31.5844 28.6755 31.1654 30.7195C30.7456 32.7661 30.5349 34.1273 30.3258 34.2867C30.1161 34.4435 29.9078 33.9183 29.9078 33.9183C29.4874 33.0786 28.8063 31.6112 28.7017 30.3014ZM29.1215 42.6209C29.6971 41.6759 31.1655 37.8511 31.1655 37.8511C31.4799 38.4284 33.9427 41.3616 33.9427 41.3616C33.9427 41.3616 30.1683 42.202 29.1215 42.6209ZM40.5466 44.2964C38.9746 44.0892 36.3019 42.1993 36.3019 42.1993C35.9354 42.0427 39.2307 41.595 40.4961 41.676C42.122 41.7814 42.6985 42.4632 42.6985 43.1443C42.6985 43.8261 42.122 44.5064 40.5466 44.2964Z" fill="#190BC4"/>
<path d="M54.0627 12.6164L42.5385 1.09125L41.4471 0H39.9022H16.3998C10.8506 0 6.3361 4.51547 6.3361 10.0665V10.8364H4.84595V22.8755H6.3361V49.9345C6.3361 55.4846 10.8508 60.0001 16.3999 60.0001H45.0884C50.6393 60.0001 55.154 55.4846 55.154 49.9345V15.2525V13.7085L54.0627 12.6164ZM45.0883 56.2726H16.3998C12.8988 56.2726 10.0616 53.4353 10.0616 49.9344V22.8754H28.4964V10.8363H10.0616V10.0664C10.0616 6.56461 12.8988 3.72633 16.3998 3.72633H39.0104V10.8623C39.0104 13.7789 41.3766 16.1434 44.2931 16.1434H51.4282V49.9343C51.4282 53.4354 48.59 56.2726 45.0883 56.2726ZM10.3229 19.4632V13.8905C10.3229 13.7921 10.403 13.7119 10.5015 13.7119H12.272C12.5638 13.7119 12.8329 13.7598 13.0732 13.8539C13.311 13.9471 13.5199 14.0777 13.6942 14.2432C13.8701 14.4095 14.0051 14.6116 14.0965 14.8433C14.1879 15.0705 14.235 15.3189 14.235 15.5809C14.235 15.8483 14.1879 16.0982 14.0956 16.3229C14.0041 16.5477 13.8691 16.747 13.695 16.9152C13.5217 17.0824 13.3118 17.2139 13.0715 17.3053C12.8329 17.3967 12.5638 17.4429 12.272 17.4429H11.5248V19.4633C11.5248 19.5618 11.4448 19.6418 11.3463 19.6418H10.5017C10.403 19.6418 10.3229 19.5616 10.3229 19.4632ZM15.7833 19.4632V13.8905C15.7833 13.7921 15.8634 13.7119 15.9619 13.7119H17.9187C18.2905 13.7119 18.6181 13.7737 18.8942 13.8956C19.1738 14.0201 19.4236 14.2179 19.6379 14.4826C19.7486 14.622 19.8365 14.7761 19.9 14.9415C19.9618 15.1027 20.0088 15.2769 20.0393 15.458C20.069 15.6374 20.0863 15.8307 20.0924 16.0389C20.0977 16.2374 20.1002 16.4508 20.1002 16.6772C20.1002 16.9027 20.0977 17.1162 20.0924 17.3147C20.0863 17.522 20.069 17.7162 20.0393 17.8964C20.0088 18.0776 19.9618 18.2509 19.9 18.4119C19.8355 18.5791 19.7476 18.7334 19.6386 18.87C19.4228 19.1374 19.1727 19.3351 18.894 19.4578C18.6205 19.5797 18.2923 19.6416 17.9186 19.6416H15.9618C15.8633 19.6418 15.7833 19.5616 15.7833 19.4632ZM25.1095 16.1696C25.208 16.1696 25.288 16.2498 25.288 16.3482V17.1076C25.288 17.2061 25.208 17.2862 25.1095 17.2862H22.9716V19.4634C22.9716 19.5619 22.8914 19.6419 22.793 19.6419H21.9482C21.8497 19.6419 21.7697 19.5619 21.7697 19.4634V13.8907C21.7697 13.7924 21.8497 13.7121 21.9482 13.7121H25.1888C25.2871 13.7121 25.3674 13.7923 25.3674 13.8907V14.6501C25.3674 14.7485 25.2872 14.8287 25.1888 14.8287H22.9716V16.1698L25.1095 16.1696Z" fill="#190BC4"/>
<path d="M12.8223 16.1371C12.9643 16.0091 13.033 15.8271 13.033 15.5806C13.033 15.335 12.9642 15.153 12.8223 15.025C12.6743 14.8926 12.4792 14.8281 12.2249 14.8281H11.5247V16.3337H12.2249C12.479 16.3339 12.6743 16.2695 12.8223 16.1371Z" fill="#190BC4"/>
<path d="M18.2974 18.4545C18.4298 18.4048 18.5438 18.3248 18.6458 18.2098C18.7564 18.0862 18.826 17.9086 18.8531 17.6812C18.8835 17.4225 18.8983 17.0846 18.8983 16.677C18.8983 16.2686 18.8835 15.9307 18.8531 15.6729C18.826 15.4448 18.7564 15.2671 18.6466 15.1443C18.5448 15.0293 18.4271 14.9476 18.2983 14.8995C18.1598 14.8464 18.0014 14.8203 17.8246 14.8203H16.9851V18.5328H17.8246C18.0004 18.5329 18.1598 18.5068 18.2974 18.4545Z" fill="#190BC4"/>
</g>
<defs>
<clipPath id="clip0_1294_494">
<rect width="60" height="60" fill="white"/>
</clipPath>
</defs>
</svg>
