<svg width="800" height="800" viewBox="0 0 800 800" fill="none" xmlns="http://www.w3.org/2000/svg">
<g clip-path="url(#clip0_1015_4544)">
<path d="M591.27 0H325.464H304.867L290.312 14.5531L89.0937 215.784L74.5405 230.338V250.925V665.791C74.5405 739.791 134.741 800.002 208.753 800.002H591.27C665.259 800.002 725.459 739.791 725.459 665.791V134.213C725.459 60.2 665.259 0 591.27 0ZM675.776 665.789C675.776 712.472 637.942 750.306 591.27 750.306H208.753C162.059 750.306 124.225 712.472 124.225 665.789V250.923H255.031C293.914 250.923 325.464 219.395 325.464 180.502V49.6938H591.27C637.942 49.6938 675.776 87.5281 675.776 134.213V665.789Z" fill="#F80707"/>
<path d="M268.667 394.977H224.09C215.603 394.977 210.519 400.497 210.519 408.766V524.006C210.519 533.988 217.087 540.567 226.208 540.567C235.131 540.567 241.698 533.989 241.698 524.006V488.997C241.698 488.145 242.134 487.72 242.986 487.72H268.667C300.065 487.72 318.961 468.617 318.961 441.452C318.962 413.861 300.284 394.977 268.667 394.977ZM266.748 460.762H242.986C242.134 460.762 241.698 460.337 241.698 459.497V423.2C241.698 422.348 242.134 421.925 242.986 421.925H266.748C279.904 421.925 287.759 429.78 287.759 441.453C287.761 453.125 279.904 460.762 266.748 460.762Z" fill="#F80707"/>
<path d="M390.923 394.977H356.754C348.267 394.977 343.183 400.497 343.183 408.766V525.708C343.183 533.989 348.265 539.291 356.754 539.291H390.923C421.689 539.291 440.803 529.527 448.439 505.972C451.189 497.691 452.694 487.72 452.694 467.133C452.694 446.547 451.187 436.575 448.439 428.295C440.801 404.741 421.689 394.977 390.923 394.977ZM418.525 495.15C414.903 506.605 404.517 511.492 390.072 511.492H375.65C374.798 511.492 374.362 511.067 374.362 510.217V424.052C374.362 423.2 374.798 422.775 375.65 422.775H390.072C404.517 422.775 414.903 427.663 418.525 439.119C420.009 444.006 421.056 452.494 421.056 467.134C421.056 481.775 420.008 490.262 418.525 495.15Z" fill="#F80707"/>
<path d="M564.323 394.977H494.305C485.817 394.977 480.711 400.497 480.711 408.766V524.006C480.711 533.988 487.302 540.567 496.422 540.567C505.323 540.567 511.912 533.989 511.912 524.006V482.833C511.912 481.992 512.327 481.567 513.178 481.567H553.937C563.058 481.567 568.359 476.048 568.359 468.192C568.359 460.336 563.058 454.828 553.937 454.828H513.178C512.327 454.828 511.912 454.403 511.912 453.552V423.2C511.912 422.348 512.327 421.925 513.178 421.925H564.323C573.03 421.925 578.769 416.197 578.769 408.561C578.767 400.703 573.028 394.977 564.323 394.977Z" fill="#F80707"/>
</g>
<defs>
<clipPath id="clip0_1015_4544">
<rect width="800" height="800" fill="white"/>
</clipPath>
</defs>
</svg>
