<svg width="58" height="61" viewBox="0 0 58 61" fill="none" xmlns="http://www.w3.org/2000/svg">
<path d="M1.58186 17.493C1.58186 8.80259 8.6268 1.75764 17.3172 1.75764H41.1978C49.8882 1.75764 56.9331 8.80258 56.9331 17.4929V43.4099C56.9331 52.1003 49.8882 59.1452 41.1978 59.1452H17.3172C8.62678 59.1452 1.58186 52.1003 1.58186 43.4099V17.493Z" fill="#313135" stroke="#343434" stroke-width="1.85121"/>
<path d="M18.5035 40.4664L18.753 41.7497C18.7946 41.9636 18.7975 42.1384 18.7625 42.2784C18.7276 42.4184 18.6621 42.5266 18.5642 42.6055C18.4663 42.6845 18.3413 42.7376 18.1911 42.7646C18.0418 42.7958 17.9059 42.7934 17.7856 42.7569C17.6653 42.7203 17.564 42.6446 17.4792 42.5279C17.3943 42.4111 17.3315 42.248 17.29 42.0341L16.347 37.183C16.2872 36.8639 16.3094 36.6243 16.4107 36.4603C16.5146 36.2981 16.6788 36.1951 16.9064 36.1553C17.1323 36.107 17.3231 36.1409 17.4802 36.2524C17.6356 36.3665 17.746 36.5803 17.81 36.8986L17.9971 37.8612L19.3318 37.6017L19.1622 36.729C19.0686 36.2478 18.9101 35.8546 18.6865 35.5496C18.463 35.2445 18.1782 35.0357 17.8314 34.9189C17.4851 34.8042 17.0809 34.7918 16.6184 34.8794C16.1569 34.9714 15.7868 35.1343 15.5086 35.3704C15.2308 35.6087 15.045 35.9089 14.952 36.2755C14.859 36.6421 14.8592 37.066 14.9528 37.5473L15.8608 42.2187C15.9544 42.7 16.1125 43.0909 16.3361 43.396C16.5596 43.701 16.8448 43.912 17.1916 44.0288C17.5379 44.1435 17.9422 44.1559 18.4046 44.0683C18.8662 43.9763 19.2363 43.8134 19.5144 43.5773C19.7922 43.3391 19.9776 43.0366 20.0706 42.6701C20.1636 42.3035 20.1638 41.8817 20.0702 41.4004L19.8382 40.2069L18.5035 40.4664ZM21.3492 43.3894L25.0837 42.6634L24.8343 41.3801L22.5114 41.8316L21.0147 34.1315L19.603 34.4059L21.3492 43.3894ZM25.6514 35.3744C25.5915 35.0553 25.6138 34.8157 25.7151 34.6517C25.819 34.4895 25.9832 34.3865 26.2108 34.3467C26.4366 34.2984 26.6275 34.3323 26.7846 34.4439C26.9399 34.5579 27.0503 34.7718 27.1144 35.0901L28.0573 39.9411C28.1172 40.2603 28.0949 40.4999 27.9936 40.6639C27.8897 40.8261 27.7255 40.9291 27.498 40.9689C27.2721 41.0172 27.0812 40.9833 26.9241 40.8718C26.7688 40.7577 26.6584 40.5438 26.5943 40.2255L25.6514 35.3744ZM25.1652 40.4101C25.2587 40.8914 25.4211 41.2815 25.6511 41.5854C25.8811 41.8891 26.1705 42.0993 26.5237 42.2148C26.8765 42.3283 27.285 42.3399 27.7474 42.2522C28.209 42.1603 28.5834 41.9965 28.868 41.7591C29.1522 41.5197 29.3419 41.2164 29.4413 40.8486C29.5407 40.4808 29.5451 40.0582 29.4516 39.5769L28.5435 34.9055C28.45 34.4242 28.2872 34.0319 28.0572 33.7281C27.8272 33.4243 27.5382 33.2164 27.185 33.1008C26.8322 32.9873 26.4237 32.9757 25.9613 33.0634C25.4997 33.1553 25.1253 33.3191 24.8407 33.5564C24.5565 33.7959 24.3664 34.097 24.267 34.4648C24.1676 34.8327 24.1636 35.2574 24.2571 35.7387L25.1652 40.4101ZM29.275 34.7633C29.3483 35.1286 29.4628 35.4438 29.6165 35.7091C29.7723 35.9741 29.9527 36.2054 30.1615 36.4001C30.3681 36.5952 30.5885 36.7699 30.8223 36.922C31.0539 37.0746 31.2864 37.2203 31.5152 37.3578C31.7461 37.495 31.9607 37.6397 32.159 37.7921C32.359 37.9418 32.5282 38.1154 32.6699 38.3076C32.8094 38.5002 32.9065 38.7256 32.9598 38.9882C33.0009 39.2 33.0042 39.3769 32.9693 39.5169C32.9343 39.6569 32.8688 39.765 32.771 39.844C32.6727 39.9208 32.548 39.9761 32.3979 40.0031C32.2486 40.0343 32.1127 40.0319 31.9924 39.9954C31.872 39.9588 31.7708 39.883 31.6859 39.7663C31.6011 39.6496 31.5383 39.4865 31.4967 39.2726L31.372 38.6309L30.0373 38.8903L30.1446 39.4422C30.2381 39.9235 30.3963 40.3145 30.6198 40.6195C30.8434 40.9246 31.1285 41.1355 31.4753 41.2523C31.8217 41.367 32.2259 41.3795 32.6883 41.2918C33.1499 41.1999 33.52 41.0369 33.7982 40.8008C34.076 40.5626 34.2614 40.2602 34.3544 39.8936C34.4474 39.527 34.4475 39.1053 34.354 38.624C34.2807 38.2586 34.1662 37.9435 34.0125 37.6782C33.8567 37.4132 33.6763 37.1819 33.4676 36.9872C33.261 36.7921 33.0405 36.6174 32.8067 36.4653C32.5751 36.3127 32.3426 36.167 32.1138 36.0295C31.8829 35.8923 31.6684 35.7476 31.47 35.5952C31.27 35.4454 31.1009 35.2719 30.9592 35.0797C30.8196 34.887 30.7221 34.6596 30.6693 34.3991C30.6095 34.0799 30.6253 33.8416 30.7202 33.6789C30.8155 33.5183 30.9754 33.4162 31.203 33.3763C31.4289 33.328 31.6154 33.3628 31.764 33.4759C31.9129 33.5913 32.0169 33.8064 32.081 34.1247L32.1533 34.4968L33.488 34.2374L33.4331 33.9551C33.3396 33.4738 33.181 33.0807 32.9617 32.7748C32.7403 32.4693 32.4577 32.2601 32.1152 32.1424C31.7731 32.0269 31.3732 32.0137 30.915 32.1005C30.4577 32.1916 30.0919 32.3537 29.818 32.589C29.5445 32.8264 29.3608 33.1262 29.27 33.4924C29.1812 33.8582 29.1815 34.282 29.275 34.7633ZM35.4965 32.6483L37.9349 32.1743L37.6854 30.891L33.8354 31.6394L35.5816 40.6229L39.4317 39.8745L39.1822 38.5911L36.7438 39.0651L36.2324 36.4342L38.1703 36.0575L37.9208 34.7742L35.9829 35.1509L35.4965 32.6483ZM40.3043 39.7048L42.5374 39.2708C43.2428 39.1314 43.732 38.8388 44.0092 38.392C44.2842 37.9457 44.3506 37.3623 44.2105 36.6415L43.3274 32.0984C43.1873 31.3776 42.9072 30.8615 42.485 30.5507C42.0606 30.2403 41.4974 30.1522 40.7912 30.2873L38.5581 30.7214L40.3043 39.7048ZM41.015 31.5756C41.1643 31.5443 41.298 31.5472 41.4183 31.5837C41.5365 31.6207 41.6356 31.6969 41.7183 31.814C41.7989 31.9315 41.8617 32.0947 41.9033 32.3086L42.8113 36.98C42.8529 37.1939 42.8558 37.3687 42.8251 37.5079C42.7923 37.6474 42.7289 37.7552 42.6332 37.8337C42.5353 37.9127 42.4124 37.9654 42.2623 37.9924L41.4666 38.1471L40.2193 31.7303L41.015 31.5756ZM13.4539 32.1908L42.3049 26.5827C43.1758 26.4134 44.0366 26.6156 44.7215 27.0776C45.4065 27.5396 45.9167 28.2634 46.0865 29.1375L47.8788 38.3578C48.048 39.2287 47.8459 40.0894 47.3839 40.7744C46.9219 41.4593 46.1981 41.9695 45.324 42.1394L16.4729 47.7475C15.602 47.9168 14.7413 47.7146 14.0564 47.2526C13.3714 46.7906 12.8612 46.0667 12.6913 45.1927L10.8991 35.9724C10.7298 35.1015 10.932 34.2407 11.394 33.5558C11.856 32.8708 12.5799 32.3607 13.4539 32.1908Z" fill="url(#paint0_linear_1837_291)"/>
<path d="M17.2461 31.6799L27.3293 17.1953L28.6134 18.088L18.5301 32.5727L17.2461 31.6799Z" fill="url(#paint1_linear_1837_291)"/>
<path d="M30.7163 17.1406L39.3668 27.5673L38.1622 28.5639L29.5117 18.1373L30.7163 17.1406Z" fill="url(#paint2_linear_1837_291)"/>
<path d="M28.9247 13.0508C29.6664 13.0508 30.3381 13.3515 30.8242 13.8377C31.3104 14.3238 31.6111 14.9955 31.6111 15.7372C31.6111 16.4789 31.3104 17.1506 30.8242 17.6367C30.3381 18.1229 29.6664 18.4236 28.9247 18.4236C28.183 18.4236 27.5114 18.1229 27.0252 17.6367C26.539 17.1506 26.2383 16.4789 26.2383 15.7372C26.2383 14.9955 26.539 14.3238 27.0252 13.8377C27.5114 13.3515 28.183 13.0508 28.9247 13.0508ZM29.7175 14.9444C29.5147 14.7416 29.2344 14.6161 28.9247 14.6161C28.615 14.6161 28.3347 14.7416 28.1319 14.9444C27.9291 15.1472 27.8036 15.4275 27.8036 15.7372C27.8036 16.0469 27.9291 16.3272 28.1319 16.53C28.3347 16.7328 28.615 16.8583 28.9247 16.8583C29.2344 16.8583 29.5147 16.7328 29.7175 16.53C29.9203 16.3272 30.0458 16.0469 30.0458 15.7372C30.0458 15.4275 29.9203 15.1472 29.7175 14.9444Z" fill="url(#paint3_linear_1837_291)"/>
<defs>
<linearGradient id="paint0_linear_1837_291" x1="29.3889" y1="26.5234" x2="29.3889" y2="47.8067" gradientUnits="userSpaceOnUse">
<stop stop-color="#219AE8"/>
<stop offset="1" stop-color="white"/>
</linearGradient>
<linearGradient id="paint1_linear_1837_291" x1="22.9297" y1="17.1953" x2="22.9297" y2="32.5727" gradientUnits="userSpaceOnUse">
<stop stop-color="#219AE8"/>
<stop offset="1" stop-color="white"/>
</linearGradient>
<linearGradient id="paint2_linear_1837_291" x1="34.4392" y1="17.1406" x2="34.4392" y2="28.5639" gradientUnits="userSpaceOnUse">
<stop stop-color="#219AE8"/>
<stop offset="1" stop-color="white"/>
</linearGradient>
<linearGradient id="paint3_linear_1837_291" x1="28.9247" y1="13.0508" x2="28.9247" y2="18.4236" gradientUnits="userSpaceOnUse">
<stop stop-color="#219AE8"/>
<stop offset="1" stop-color="white"/>
</linearGradient>
</defs>
</svg>
