<svg width="64" height="68" viewBox="0 0 64 68" fill="none" xmlns="http://www.w3.org/2000/svg">
<g filter="url(#filter0_d_1916_1548)">
<rect x="4.57812" width="54.4866" height="59.2388" rx="16.6609" fill="#FAFAFF"/>
</g>
<path d="M12.5213 29.8161C12.3241 29.8161 12.1641 29.6531 12.1641 29.4523C12.1641 18.0198 21.299 8.71875 32.5274 8.71875C32.7246 8.71875 32.8847 8.88171 32.8847 9.0825C32.8847 9.28329 32.7246 9.44624 32.5274 9.44624C21.6934 9.44624 12.8786 18.4206 12.8786 29.4523C12.8786 29.6531 12.7185 29.8161 12.5213 29.8161Z" fill="#4338CA"/>
<path d="M34.6733 9.44624H33.9588C33.7616 9.44624 33.6016 9.28329 33.6016 9.0825C33.6016 8.88171 33.7616 8.71875 33.9588 8.71875H34.6733C34.8705 8.71875 35.0306 8.88171 35.0306 9.0825C35.0306 9.28329 34.8705 9.44624 34.6733 9.44624Z" fill="#4338CA"/>
<path d="M32.5252 50.1872C32.328 50.1872 32.168 50.0242 32.168 49.8234C32.168 49.6226 32.328 49.4597 32.5252 49.4597C43.3592 49.4597 52.1741 40.4853 52.1741 29.4536C52.1741 29.2528 52.3341 29.0898 52.5313 29.0898C52.7285 29.0898 52.8886 29.2528 52.8886 29.4536C52.8886 40.8862 43.7536 50.1872 32.5252 50.1872Z" fill="#4338CA"/>
<path d="M31.0952 50.1845H30.3807C30.1835 50.1845 30.0234 50.0216 30.0234 49.8208C30.0234 49.62 30.1835 49.457 30.3807 49.457H31.0952C31.2924 49.457 31.4524 49.62 31.4524 49.8208C31.4524 50.0216 31.2924 50.1845 31.0952 50.1845Z" fill="#4338CA"/>
<path d="M32.5288 47.2761C22.8758 47.2761 15.0234 39.2802 15.0234 29.4525C15.0234 19.6248 22.8758 11.6289 32.5288 11.6289C42.1817 11.6289 50.0341 19.6248 50.0341 29.4525C50.0341 39.2802 42.1817 47.2761 32.5288 47.2761ZM32.5288 12.3564C23.2702 12.3564 15.7379 20.0256 15.7379 29.4525C15.7379 38.8794 23.2702 46.5486 32.5288 46.5486C41.7873 46.5486 49.3196 38.8794 49.3196 29.4525C49.3196 20.0256 41.7873 12.3564 32.5288 12.3564Z" fill="#4338CA"/>
<path d="M32.529 16.3555C25.4262 16.3555 19.668 22.2183 19.668 29.4504C19.668 36.6824 25.4262 42.5453 32.529 42.5453C39.6319 42.5453 45.3901 36.6824 45.3901 29.4504C45.3901 22.2183 39.6319 16.3555 32.529 16.3555Z" fill="#4338CA"/>
<path d="M32.5269 42.9095C25.2383 42.9095 19.3086 36.872 19.3086 29.4508C19.3086 22.0297 25.2383 15.9922 32.5269 15.9922C39.8156 15.9922 45.7452 22.0297 45.7452 29.4508C45.7452 36.872 39.8156 42.9095 32.5269 42.9095ZM32.5269 16.7197C25.6327 16.7197 20.0231 22.4312 20.0231 29.4508C20.0231 36.4704 25.6327 42.182 32.5269 42.182C39.4211 42.182 45.0307 36.4704 45.0307 29.4508C45.0307 22.4312 39.4211 16.7197 32.5269 16.7197Z" fill="#4338CA"/>
<path d="M47.5317 10.8994H44.6737C44.4765 10.8994 44.3164 10.7364 44.3164 10.5356C44.3164 10.3348 44.4765 10.1719 44.6737 10.1719H47.5317C47.7289 10.1719 47.8889 10.3348 47.8889 10.5356C47.8889 10.7364 47.7289 10.8994 47.5317 10.8994Z" fill="#4338CA"/>
<path d="M46.1033 12.3562C45.9061 12.3562 45.7461 12.1933 45.7461 11.9925V9.0825C45.7461 8.88171 45.9061 8.71875 46.1033 8.71875C46.3005 8.71875 46.4606 8.88171 46.4606 9.0825V11.9925C46.4606 12.1933 46.3005 12.3562 46.1033 12.3562Z" fill="#4338CA"/>
<path d="M52.5356 15.6298H49.6776C49.4804 15.6298 49.3203 15.4669 49.3203 15.2661C49.3203 15.0653 49.4804 14.9023 49.6776 14.9023H52.5356C52.7328 14.9023 52.8928 15.0653 52.8928 15.2661C52.8928 15.4669 52.7328 15.6298 52.5356 15.6298Z" fill="#4338CA"/>
<path d="M51.1033 17.0828C50.9061 17.0828 50.7461 16.9198 50.7461 16.719V13.8091C50.7461 13.6083 50.9061 13.4453 51.1033 13.4453C51.3005 13.4453 51.4606 13.6083 51.4606 13.8091V16.719C51.4606 16.9198 51.3005 17.0828 51.1033 17.0828Z" fill="#4338CA"/>
<path d="M37.076 23.2768L32.5289 27.9065L27.9818 23.2768C27.5631 22.8505 26.8851 22.8505 26.4664 23.2768C26.0477 23.7031 26.0477 24.3935 26.4664 24.8198L31.0135 29.4496L26.4664 34.0793C26.0477 34.5056 26.0477 35.196 26.4664 35.6223C26.8851 36.0487 27.5631 36.0487 27.9818 35.6223L32.5289 30.9926L37.076 35.6223C37.4947 36.0487 38.1728 36.0487 38.5915 35.6223C39.0102 35.196 39.0102 34.5056 38.5915 34.0793L34.0444 29.4496L38.5915 24.8198C39.0102 24.3935 39.0102 23.7031 38.5915 23.2768C38.1735 22.8505 37.4947 22.8505 37.076 23.2768Z" fill="white"/>
<defs>
<filter id="filter0_d_1916_1548" x="0.578125" y="0" width="62.4883" height="67.2383" filterUnits="userSpaceOnUse" color-interpolation-filters="sRGB">
<feFlood flood-opacity="0" result="BackgroundImageFix"/>
<feColorMatrix in="SourceAlpha" type="matrix" values="0 0 0 0 0 0 0 0 0 0 0 0 0 0 0 0 0 0 127 0" result="hardAlpha"/>
<feOffset dy="4"/>
<feGaussianBlur stdDeviation="2"/>
<feComposite in2="hardAlpha" operator="out"/>
<feColorMatrix type="matrix" values="0 0 0 0 0 0 0 0 0 0 0 0 0 0 0 0 0 0 0.25 0"/>
<feBlend mode="normal" in2="BackgroundImageFix" result="effect1_dropShadow_1916_1548"/>
<feBlend mode="normal" in="SourceGraphic" in2="effect1_dropShadow_1916_1548" result="shape"/>
</filter>
</defs>
</svg>
