<svg width="58" height="61" viewBox="0 0 58 61" fill="none" xmlns="http://www.w3.org/2000/svg">
<rect x="1.12873" y="1.75764" width="55.3513" height="57.3876" rx="15.7353" fill="#313135" stroke="#343434" stroke-width="1.85121"/>
<path d="M8.52131 30.8161C8.32411 30.8161 8.16406 30.6531 8.16406 30.4523C8.16406 19.0198 17.299 9.71875 28.5274 9.71875C28.7246 9.71875 28.8847 9.88171 28.8847 10.0825C28.8847 10.2833 28.7246 10.4462 28.5274 10.4462C17.6934 10.4462 8.87857 19.4206 8.87857 30.4523C8.87857 30.6531 8.71852 30.8161 8.52131 30.8161Z" fill="url(#paint0_linear_1837_295)"/>
<path d="M30.6733 10.4462H29.9588C29.7616 10.4462 29.6016 10.2833 29.6016 10.0825C29.6016 9.88171 29.7616 9.71875 29.9588 9.71875H30.6733C30.8705 9.71875 31.0306 9.88171 31.0306 10.0825C31.0306 10.2833 30.8705 10.4462 30.6733 10.4462Z" fill="url(#paint1_linear_1837_295)"/>
<path d="M28.5252 51.1872C28.328 51.1872 28.168 51.0242 28.168 50.8234C28.168 50.6226 28.328 50.4597 28.5252 50.4597C39.3592 50.4597 48.1741 41.4853 48.1741 30.4536C48.1741 30.2528 48.3341 30.0898 48.5313 30.0898C48.7285 30.0898 48.8886 30.2528 48.8886 30.4536C48.8886 41.8862 39.7536 51.1872 28.5252 51.1872Z" fill="url(#paint2_linear_1837_295)"/>
<path d="M27.0952 51.1845H26.3807C26.1835 51.1845 26.0234 51.0216 26.0234 50.8208C26.0234 50.62 26.1835 50.457 26.3807 50.457H27.0952C27.2924 50.457 27.4524 50.62 27.4524 50.8208C27.4524 51.0216 27.2924 51.1845 27.0952 51.1845Z" fill="url(#paint3_linear_1837_295)"/>
<path d="M28.5288 48.2761C18.8758 48.2761 11.0234 40.2802 11.0234 30.4525C11.0234 20.6248 18.8758 12.6289 28.5288 12.6289C38.1817 12.6289 46.0341 20.6248 46.0341 30.4525C46.0341 40.2802 38.1817 48.2761 28.5288 48.2761ZM28.5288 13.3564C19.2702 13.3564 11.7379 21.0256 11.7379 30.4525C11.7379 39.8794 19.2702 47.5486 28.5288 47.5486C37.7873 47.5486 45.3196 39.8794 45.3196 30.4525C45.3196 21.0256 37.7873 13.3564 28.5288 13.3564Z" fill="url(#paint4_linear_1837_295)"/>
<path d="M28.529 17.3555C21.4262 17.3555 15.668 23.2183 15.668 30.4504C15.668 37.6824 21.4262 43.5453 28.529 43.5453C35.6319 43.5453 41.3901 37.6824 41.3901 30.4504C41.3901 23.2183 35.6319 17.3555 28.529 17.3555Z" fill="url(#paint5_linear_1837_295)"/>
<path d="M28.5269 43.9095C21.2383 43.9095 15.3086 37.872 15.3086 30.4508C15.3086 23.0297 21.2383 16.9922 28.5269 16.9922C35.8156 16.9922 41.7452 23.0297 41.7452 30.4508C41.7452 37.872 35.8156 43.9095 28.5269 43.9095ZM28.5269 17.7197C21.6327 17.7197 16.0231 23.4312 16.0231 30.4508C16.0231 37.4704 21.6327 43.182 28.5269 43.182C35.4211 43.182 41.0307 37.4704 41.0307 30.4508C41.0307 23.4312 35.4211 17.7197 28.5269 17.7197Z" fill="url(#paint6_linear_1837_295)"/>
<path d="M43.5317 11.8994H40.6737C40.4765 11.8994 40.3164 11.7364 40.3164 11.5356C40.3164 11.3348 40.4765 11.1719 40.6737 11.1719H43.5317C43.7289 11.1719 43.8889 11.3348 43.8889 11.5356C43.8889 11.7364 43.7289 11.8994 43.5317 11.8994Z" fill="url(#paint7_linear_1837_295)"/>
<path d="M42.1033 13.3562C41.9061 13.3562 41.7461 13.1933 41.7461 12.9925V10.0825C41.7461 9.88171 41.9061 9.71875 42.1033 9.71875C42.3005 9.71875 42.4606 9.88171 42.4606 10.0825V12.9925C42.4606 13.1933 42.3005 13.3562 42.1033 13.3562Z" fill="url(#paint8_linear_1837_295)"/>
<path d="M48.5356 16.6298H45.6776C45.4804 16.6298 45.3203 16.4669 45.3203 16.2661C45.3203 16.0653 45.4804 15.9023 45.6776 15.9023H48.5356C48.7328 15.9023 48.8928 16.0653 48.8928 16.2661C48.8928 16.4669 48.7328 16.6298 48.5356 16.6298Z" fill="url(#paint9_linear_1837_295)"/>
<path d="M47.1033 18.0828C46.9061 18.0828 46.7461 17.9198 46.7461 17.719V14.8091C46.7461 14.6083 46.9061 14.4453 47.1033 14.4453C47.3005 14.4453 47.4606 14.6083 47.4606 14.8091V17.719C47.4606 17.9198 47.3005 18.0828 47.1033 18.0828Z" fill="url(#paint10_linear_1837_295)"/>
<path d="M33.076 24.2768L28.5289 28.9065L23.9818 24.2768C23.5631 23.8505 22.8851 23.8505 22.4664 24.2768C22.0477 24.7031 22.0477 25.3935 22.4664 25.8198L27.0135 30.4496L22.4664 35.0793C22.0477 35.5056 22.0477 36.196 22.4664 36.6223C22.8851 37.0487 23.5631 37.0487 23.9818 36.6223L28.5289 31.9926L33.076 36.6223C33.4947 37.0487 34.1728 37.0487 34.5915 36.6223C35.0102 36.196 35.0102 35.5056 34.5915 35.0793L30.0444 30.4496L34.5915 25.8198C35.0102 25.3935 35.0102 24.7031 34.5915 24.2768C34.1735 23.8505 33.4947 23.8505 33.076 24.2768Z" fill="#188FDD"/>
<defs>
<linearGradient id="paint0_linear_1837_295" x1="18.5244" y1="9.71875" x2="18.5244" y2="30.8161" gradientUnits="userSpaceOnUse">
<stop stop-color="#219AE8"/>
<stop offset="1" stop-color="white"/>
</linearGradient>
<linearGradient id="paint1_linear_1837_295" x1="30.3161" y1="9.71875" x2="30.3161" y2="10.4462" gradientUnits="userSpaceOnUse">
<stop stop-color="#219AE8"/>
<stop offset="1" stop-color="white"/>
</linearGradient>
<linearGradient id="paint2_linear_1837_295" x1="38.5283" y1="30.0898" x2="38.5283" y2="51.1872" gradientUnits="userSpaceOnUse">
<stop stop-color="#219AE8"/>
<stop offset="1" stop-color="white"/>
</linearGradient>
<linearGradient id="paint3_linear_1837_295" x1="26.7379" y1="50.457" x2="26.7379" y2="51.1845" gradientUnits="userSpaceOnUse">
<stop stop-color="#219AE8"/>
<stop offset="1" stop-color="white"/>
</linearGradient>
<linearGradient id="paint4_linear_1837_295" x1="28.5288" y1="12.6289" x2="28.5288" y2="48.2761" gradientUnits="userSpaceOnUse">
<stop stop-color="#219AE8"/>
<stop offset="1" stop-color="white"/>
</linearGradient>
<linearGradient id="paint5_linear_1837_295" x1="28.529" y1="17.3555" x2="28.529" y2="43.5453" gradientUnits="userSpaceOnUse">
<stop stop-color="#219AE8"/>
<stop offset="1" stop-color="white"/>
</linearGradient>
<linearGradient id="paint6_linear_1837_295" x1="28.5269" y1="16.9922" x2="28.5269" y2="43.9095" gradientUnits="userSpaceOnUse">
<stop stop-color="#219AE8"/>
<stop offset="1" stop-color="white"/>
</linearGradient>
<linearGradient id="paint7_linear_1837_295" x1="42.1027" y1="11.1719" x2="42.1027" y2="11.8994" gradientUnits="userSpaceOnUse">
<stop stop-color="#219AE8"/>
<stop offset="1" stop-color="white"/>
</linearGradient>
<linearGradient id="paint8_linear_1837_295" x1="42.1033" y1="9.71875" x2="42.1033" y2="13.3562" gradientUnits="userSpaceOnUse">
<stop stop-color="#219AE8"/>
<stop offset="1" stop-color="white"/>
</linearGradient>
<linearGradient id="paint9_linear_1837_295" x1="47.1066" y1="15.9023" x2="47.1066" y2="16.6298" gradientUnits="userSpaceOnUse">
<stop stop-color="#219AE8"/>
<stop offset="1" stop-color="white"/>
</linearGradient>
<linearGradient id="paint10_linear_1837_295" x1="47.1033" y1="14.4453" x2="47.1033" y2="18.0828" gradientUnits="userSpaceOnUse">
<stop stop-color="#219AE8"/>
<stop offset="1" stop-color="white"/>
</linearGradient>
</defs>
</svg>
