<svg width="49" height="49" viewBox="0 0 49 49" fill="none" xmlns="http://www.w3.org/2000/svg">
<path fill-rule="evenodd" clip-rule="evenodd" d="M14.6076 3.22176C14.7033 3.2218 14.8004 3.22184 14.8989 3.22184H33.8363C33.9347 3.22184 34.0319 3.2218 34.1277 3.22176C36.1522 3.22088 37.5456 3.22027 38.7192 3.6286C40.9354 4.39976 42.6561 6.18328 43.3939 8.43014C43.7842 9.61919 43.7838 11.0327 43.783 13.1315C43.783 13.2255 43.783 13.3208 43.783 13.4175V41.3041C43.783 44.2218 40.344 45.9588 38.079 43.8863C37.9207 43.7415 37.6973 43.7415 37.539 43.8863L36.577 44.7666C34.7287 46.4579 31.9283 46.4579 30.0801 44.7666C29.3732 44.1197 28.323 44.1197 27.6161 44.7666C25.7677 46.4579 22.9674 46.4579 21.1192 44.7666C20.4123 44.1197 19.362 44.1197 18.6551 44.7666C16.8068 46.4579 14.0065 46.4579 12.1582 44.7666L11.1962 43.8863C11.038 43.7415 10.8145 43.7415 10.6562 43.8863C8.39125 45.9588 4.95229 44.2218 4.95229 41.3041V13.4175C4.95229 13.3208 4.95225 13.2255 4.95221 13.1315C4.95146 11.0327 4.95094 9.61919 5.34136 8.43014C6.07906 6.18328 7.79977 4.39976 10.016 3.6286C11.1895 3.22027 12.5829 3.22088 14.6076 3.22176ZM14.8989 6.20881C12.4674 6.20881 11.6298 6.2297 10.9976 6.44966C9.68461 6.90654 8.63447 7.9755 8.17928 9.36189C7.95806 10.0356 7.93926 10.924 7.93926 13.4175V41.3041C7.93926 41.5411 8.05858 41.6861 8.20829 41.7554C8.28629 41.7914 8.36256 41.8008 8.42612 41.7922C8.48215 41.7846 8.55466 41.7606 8.63977 41.6827C9.93946 40.4933 11.913 40.4933 13.2127 41.6827L14.1747 42.5631C14.8816 43.2098 15.9318 43.2098 16.6387 42.5631C18.487 40.8716 21.2873 40.8716 23.1356 42.5631C23.8425 43.2098 24.8928 43.2098 25.5997 42.5631C27.4478 40.8716 30.2482 40.8716 32.0965 42.5631C32.8035 43.2098 33.8537 43.2098 34.5606 42.5631L35.5226 41.6827C36.8221 40.4933 38.7957 40.4933 40.0954 41.6827C40.1805 41.7606 40.253 41.7846 40.3091 41.7922C40.3726 41.8008 40.4489 41.7914 40.527 41.7554C40.6765 41.6861 40.796 41.5413 40.796 41.3041V13.4175C40.796 10.924 40.7771 10.0356 40.5558 9.36189C40.1006 7.9755 39.0506 6.90654 37.7375 6.44966C37.1053 6.2297 36.2677 6.20881 33.8363 6.20881H14.8989ZM12.9175 15.6675C12.9175 14.8427 13.5862 14.1741 14.411 14.1741H15.4067C16.2315 14.1741 16.9002 14.8427 16.9002 15.6675C16.9002 16.4924 16.2315 17.161 15.4067 17.161H14.411C13.5862 17.161 12.9175 16.4924 12.9175 15.6675ZM19.8871 15.6675C19.8871 14.8427 20.5559 14.1741 21.3807 14.1741H34.3242C35.149 14.1741 35.8177 14.8427 35.8177 15.6675C35.8177 16.4924 35.149 17.161 34.3242 17.161H21.3807C20.5559 17.161 19.8871 16.4924 19.8871 15.6675ZM12.9175 22.6372C12.9175 21.8124 13.5862 21.1437 14.411 21.1437H15.4067C16.2315 21.1437 16.9002 21.8124 16.9002 22.6372C16.9002 23.462 16.2315 24.1307 15.4067 24.1307H14.411C13.5862 24.1307 12.9175 23.462 12.9175 22.6372ZM19.8871 22.6372C19.8871 21.8124 20.5559 21.1437 21.3807 21.1437H34.3242C35.149 21.1437 35.8177 21.8124 35.8177 22.6372C35.8177 23.462 35.149 24.1307 34.3242 24.1307H21.3807C20.5559 24.1307 19.8871 23.462 19.8871 22.6372ZM12.9175 29.6068C12.9175 28.782 13.5862 28.1133 14.411 28.1133H15.4067C16.2315 28.1133 16.9002 28.782 16.9002 29.6068C16.9002 30.4316 16.2315 31.1003 15.4067 31.1003H14.411C13.5862 31.1003 12.9175 30.4316 12.9175 29.6068ZM19.8871 29.6068C19.8871 28.782 20.5559 28.1133 21.3807 28.1133H34.3242C35.149 28.1133 35.8177 28.782 35.8177 29.6068C35.8177 30.4316 35.149 31.1003 34.3242 31.1003H21.3807C20.5559 31.1003 19.8871 30.4316 19.8871 29.6068Z" fill="white"/>
</svg>
