<svg width="31" height="31" viewBox="0 0 31 31" fill="none" xmlns="http://www.w3.org/2000/svg">
<circle cx="15.8007" cy="15.0774" r="15.0774" fill="#4338CA"/>
<g clip-path="url(#clip0_528_413)">
<path d="M15.961 9.24609C14.5509 9.24627 13.1536 9.85233 13.3004 11.0634L13.6604 13.6957C13.7238 14.159 14.0366 14.8995 14.5043 14.8995H14.5376L14.9204 19.4949C14.937 19.6935 15.081 19.8549 15.2804 19.8549H16.7204C16.9199 19.8549 17.0639 19.6935 17.0804 19.4949L17.4633 14.8995H17.4966C17.9641 14.8995 18.2771 14.1588 18.3404 13.6957L18.7004 11.0634C18.7946 9.85125 17.3713 9.24573 15.961 9.24609Z" fill="white"/>
<path d="M16.0054 14.1641L15.9963 14.188C15.9994 14.1807 16.0015 14.1734 16.0045 14.1661L16.0054 14.1641Z" fill="black"/>
<path d="M12.9075 17.6865C10.3648 18.0458 8.58643 18.9053 8.58643 20.1705C8.58643 21.8748 11.5579 23.2563 15.7864 23.2563C20.015 23.2563 22.9864 21.8748 22.9864 20.1705C22.9864 18.9053 21.2082 18.0458 18.6657 17.6865L18.3134 18.2863C20.2297 18.5521 21.5464 19.1109 21.5464 19.7592C21.5464 20.6682 18.9676 21.405 15.7864 21.405C12.6053 21.405 10.0264 20.6682 10.0264 19.7592C10.0262 19.113 11.3343 18.5548 13.2565 18.2879C13.1404 18.0874 13.0238 17.8872 12.9075 17.6865Z" fill="white"/>
<path d="M16.0001 8.78C17.0439 8.78 17.8901 7.93382 17.8901 6.89C17.8901 5.84618 17.0439 5 16.0001 5C14.9563 5 14.1101 5.84618 14.1101 6.89C14.1101 7.93382 14.9563 8.78 16.0001 8.78Z" fill="white"/>
</g>
<defs>
<clipPath id="clip0_528_413">
<rect width="18" height="18" fill="white" transform="translate(7 5)"/>
</clipPath>
</defs>
</svg>
