<svg width="53" height="57" viewBox="0 0 53 57" fill="none" xmlns="http://www.w3.org/2000/svg">
<g clip-path="url(#clip0_308_390)">
<path fill-rule="evenodd" clip-rule="evenodd" d="M38.2434 16.5361C33.2604 16.5361 29.2211 20.9471 29.2211 26.3883C29.2211 31.8296 33.2604 36.2406 38.2434 36.2406C43.2264 36.2406 47.266 31.8296 47.266 26.3883C47.266 20.9471 43.2264 16.5361 38.2434 16.5361ZM24.2998 26.3883C24.2998 17.9791 30.5426 11.1621 38.2434 11.1621C45.9444 11.1621 52.1873 17.9791 52.1873 26.3883C52.1873 34.7976 45.9444 41.6145 38.2434 41.6145C30.5426 41.6145 24.2998 34.7976 24.2998 26.3883Z" fill="white"/>
<path fill-rule="evenodd" clip-rule="evenodd" d="M26.761 29.0761H11.9971V23.7021H26.761V29.0761Z" fill="white"/>
<path d="M13.6376 26.3876C13.6376 29.3556 11.4342 31.7616 8.71624 31.7616C5.9983 31.7616 3.79492 29.3556 3.79492 26.3876C3.79492 23.4197 5.9983 21.0137 8.71624 21.0137C11.4342 21.0137 13.6376 23.4197 13.6376 26.3876Z" fill="white"/>
<path fill-rule="evenodd" clip-rule="evenodd" d="M8.71586 24.5959C7.80989 24.5959 7.07545 25.3979 7.07545 26.3873C7.07545 27.3766 7.80989 28.1786 8.71586 28.1786C9.62187 28.1786 10.3563 27.3766 10.3563 26.3873C10.3563 25.3979 9.62187 24.5959 8.71586 24.5959ZM0.513672 26.3873C0.513672 21.4407 4.18591 17.4307 8.71586 17.4307C13.2458 17.4307 16.9181 21.4407 16.9181 26.3873C16.9181 31.3339 13.2458 35.3439 8.71586 35.3439C4.18591 35.3439 0.513672 31.3339 0.513672 26.3873Z" fill="white"/>
</g>
<defs>
<clipPath id="clip0_308_390">
<rect width="51.6739" height="56.4266" fill="white" transform="translate(0.513672 0.581055)"/>
</clipPath>
</defs>
</svg>
