<svg width="17" height="17" viewBox="0 0 17 17" fill="none" xmlns="http://www.w3.org/2000/svg">
<path d="M11.8338 9.275C10.8447 9.275 10.0424 10.0934 10.0424 11.1025C10.0424 12.1117 10.8447 12.9301 11.8338 12.9301C12.8229 12.9301 13.6251 12.1117 13.6251 11.1025C13.6251 10.0934 12.8229 9.275 11.8338 9.275ZM11.8338 11.7779C11.4677 11.7779 11.1718 11.476 11.1718 11.1025C11.1718 10.7291 11.4677 10.4271 11.8338 10.4271C12.1999 10.4271 12.4958 10.7291 12.4958 11.1025C12.4958 11.476 12.1999 11.7779 11.8338 11.7779ZM15.8059 1.38878H11.678C11.678 0.774967 11.1893 0.276367 10.5876 0.276367H9.02995C8.42829 0.276367 7.93956 0.774967 7.93956 1.38878H3.81167C3.46703 1.38878 3.18859 1.67284 3.18859 2.02445V5.99735H1.47513C1.13049 5.99735 0.852051 6.28142 0.852051 6.63302V15.5323C0.852051 15.8839 1.13049 16.168 1.47513 16.168H8.01745C8.36209 16.168 8.64052 15.8839 8.64052 15.5323V15.2145H15.8059C16.1506 15.2145 16.429 14.9304 16.429 14.5788V2.02445C16.429 1.67284 16.1506 1.38878 15.8059 1.38878ZM7.78379 2.66011H9.18572V1.5477H10.4319V2.66011H11.8338V3.61361H7.78379V2.66011ZM7.39437 14.8967H2.09821V10.2881H7.39437V14.8967ZM7.39437 9.01676H2.09821V7.26868H7.39437V9.01676ZM15.0271 13.7843H8.64052V6.63302C8.64052 6.28142 8.36209 5.99735 8.01745 5.99735H4.59052V2.81903H6.53764V4.88494H13.08V2.81903H15.0271V13.7843ZM12.379 6.15627V8.06327C12.379 8.15067 12.4491 8.22218 12.5348 8.22218H13.4694C13.5551 8.22218 13.6251 8.15067 13.6251 8.06327V6.15627C13.6251 6.06887 13.5551 5.99735 13.4694 5.99735H12.5348C12.4491 5.99735 12.379 6.06887 12.379 6.15627ZM10.1982 8.22218H11.1328C11.2185 8.22218 11.2886 8.15067 11.2886 8.06327V6.95085C11.2886 6.86345 11.2185 6.79194 11.1328 6.79194H10.1982C10.1125 6.79194 10.0424 6.86345 10.0424 6.95085V8.06327C10.0424 8.15067 10.1125 8.22218 10.1982 8.22218Z" fill="white"/>
</svg>
