<svg width="49" height="49" viewBox="0 0 49 49" fill="none" xmlns="http://www.w3.org/2000/svg">
<g clip-path="url(#clip0_308_440)">
<path d="M45.294 33.7361L48.1079 30.9222L40.6711 23.4854L29.0133 35.1431C28.0083 34.5401 26.8024 34.3391 25.5964 34.3391C21.7775 34.3391 18.5615 37.5551 18.5615 41.374C18.5615 45.1929 21.7775 48.4089 25.5964 48.4089C29.4153 48.4089 32.6312 45.1929 32.6312 41.374C32.6312 40.168 32.2293 38.962 31.8273 37.9571L35.6462 34.1381L40.2691 38.761L43.083 35.9471L38.4601 31.3242L40.6711 29.1132L45.294 33.7361ZM25.5964 44.3889C23.9884 44.3889 22.5814 42.982 22.5814 41.374C22.5814 39.766 23.9884 38.3591 25.5964 38.3591C27.2044 38.3591 28.6113 39.766 28.6113 41.374C28.6113 42.982 27.2044 44.3889 25.5964 44.3889Z" fill="white"/>
<path d="M4.4916 38.3582C4.4916 30.5193 10.7225 24.2885 18.5613 24.2885C22.5812 24.2885 26.4002 26.0974 29.2141 29.1124L32.2291 26.4994C30.4201 24.4895 28.4101 22.8815 25.9982 21.8765C28.8121 19.6656 30.6211 16.0476 30.6211 12.2287C30.6211 5.59584 25.1942 0.168945 18.5613 0.168945C11.9285 0.168945 6.50156 5.59584 6.50156 12.2287C6.50156 16.0476 8.31052 19.6656 11.3255 21.8765C4.89359 24.6905 0.47168 30.9213 0.47168 38.3582V48.408H16.5514V44.3881H4.4916V38.3582ZM10.5215 12.2287C10.5215 7.80679 14.1394 4.18887 18.5613 4.18887C22.9832 4.18887 26.6012 7.80679 26.6012 12.2287C26.6012 16.6506 22.9832 20.2685 18.5613 20.2685C14.1394 20.2685 10.5215 16.6506 10.5215 12.2287Z" fill="white"/>
</g>
<defs>
<clipPath id="clip0_308_440">
<rect width="48.239" height="48.239" fill="white" transform="translate(0.472168 0.167969)"/>
</clipPath>
</defs>
</svg>
