<svg width="17" height="17" viewBox="0 0 17 17" fill="none" xmlns="http://www.w3.org/2000/svg">
<path d="M8.14016 3.50672C8.09386 3.4623 8.03219 3.4375 7.96803 3.4375C7.90387 3.4375 7.8422 3.4623 7.79591 3.50672L2.06549 8.98142C2.04115 9.00465 2.02176 9.03257 2.00849 9.06349C1.99522 9.09441 1.98835 9.12769 1.98828 9.16134V14.2996C1.98828 14.5636 2.09311 14.8168 2.27973 15.0036C2.46635 15.1903 2.71948 15.2953 2.98349 15.2955H5.97478C6.04023 15.2956 6.10506 15.2828 6.16556 15.2578C6.22606 15.2328 6.28103 15.1962 6.32735 15.1499C6.37366 15.1037 6.41041 15.0487 6.43548 14.9883C6.46054 14.9278 6.47345 14.863 6.47345 14.7975V10.5646C6.47335 10.5318 6.47972 10.4994 6.49217 10.4692C6.50462 10.4389 6.52292 10.4114 6.54602 10.3883C6.56911 10.3651 6.59655 10.3467 6.62676 10.3342C6.65697 10.3217 6.68936 10.3152 6.72207 10.3152H9.21257C9.24528 10.3152 9.27767 10.3217 9.30788 10.3342C9.33809 10.3467 9.36553 10.3651 9.38863 10.3883C9.41172 10.4114 9.43002 10.4389 9.44248 10.4692C9.45493 10.4994 9.46129 10.5318 9.4612 10.5646V14.7975C9.4612 14.863 9.4741 14.9278 9.49917 14.9883C9.52424 15.0487 9.56098 15.1037 9.6073 15.1499C9.65361 15.1962 9.70859 15.2328 9.76909 15.2578C9.82958 15.2828 9.89441 15.2956 9.95986 15.2955H12.949C13.2132 15.2955 13.4666 15.1906 13.6535 15.0039C13.8404 14.8171 13.9455 14.5638 13.9457 14.2996V9.16134C13.9458 9.12773 13.939 9.09445 13.9259 9.06352C13.9127 9.03259 13.8934 9.00466 13.8692 8.98142L8.14016 3.50601V3.50672Z" fill="white"/>
<path d="M15.2807 7.95465L12.9524 5.72765V2.34748C12.9524 2.21541 12.9 2.08875 12.8066 1.99537C12.7132 1.90198 12.5866 1.84952 12.4545 1.84952H10.9599C10.8278 1.84952 10.7012 1.90198 10.6078 1.99537C10.5144 2.08875 10.4619 2.21541 10.4619 2.34748V3.3434L8.65924 1.61931C8.48995 1.44931 8.2392 1.35156 7.9679 1.35156C7.69874 1.35156 7.44799 1.44931 7.2794 1.62002L0.657904 7.95465C0.563447 8.04352 0.506568 8.16516 0.498929 8.29462C0.49129 8.42409 0.53347 8.55158 0.616821 8.65094C0.661081 8.70192 0.715246 8.74337 0.776025 8.77277C0.836803 8.80217 0.902925 8.8189 0.970371 8.82195C1.03782 8.82499 1.10518 8.81429 1.16836 8.7905C1.23154 8.7667 1.28923 8.7303 1.3379 8.68352L7.7972 2.51181C7.84357 2.46756 7.90522 2.44287 7.96932 2.44287C8.03343 2.44287 8.09507 2.46756 8.14145 2.51181L14.6014 8.68352C14.6965 8.77467 14.8239 8.82443 14.9556 8.8219C15.0873 8.81938 15.2126 8.76478 15.3041 8.67006C15.4954 8.47173 15.4798 8.1459 15.2807 7.95465Z" fill="white"/>
</svg>
