<svg xmlns="http://www.w3.org/2000/svg" width="17" height="17" viewBox="0 0 17 17" fill="none">
  <path d="M3.2371 15.7936H2.24119C2.04312 15.7936 1.85315 15.715 1.71302 15.575C1.5729 15.435 1.49408 15.2451 1.4939 15.0471V10.5647C1.4939 10.3665 1.57263 10.1764 1.71277 10.0363C1.85292 9.89616 2.04299 9.81742 2.24119 9.81742H3.2371C3.4353 9.81742 3.62538 9.89616 3.76552 10.0363C3.90566 10.1764 3.9844 10.3665 3.9844 10.5647V15.0471C3.98421 15.2451 3.90539 15.435 3.76527 15.575C3.62515 15.715 3.43518 15.7936 3.2371 15.7936ZM10.2099 15.7929H9.21402C9.01583 15.7929 8.82575 15.7142 8.68561 15.574C8.54546 15.4339 8.46673 15.2438 8.46673 15.0456V7.57555C8.46673 7.37736 8.54546 7.18728 8.68561 7.04714C8.82575 6.90699 9.01583 6.82826 9.21402 6.82826H10.2099C10.4081 6.82826 10.5982 6.90699 10.7384 7.04714C10.8785 7.18728 10.9572 7.37736 10.9572 7.57555V15.0449C10.9572 15.2431 10.8785 15.4332 10.7384 15.5733C10.5982 15.7135 10.4081 15.7929 10.2099 15.7929ZM13.6964 15.7936H12.7004C12.5022 15.7936 12.3122 15.7149 12.172 15.5748C12.0319 15.4346 11.9531 15.2445 11.9531 15.0463V4.08913C11.9535 3.89119 12.0324 3.70147 12.1725 3.56163C12.3126 3.4218 12.5025 3.34326 12.7004 3.34326H13.6964C13.8944 3.34326 14.0844 3.42189 14.2245 3.56189C14.3646 3.70188 14.4435 3.89177 14.4436 4.08984V15.0478C14.4435 15.2458 14.3646 15.4357 14.2245 15.5757C14.0844 15.7157 13.8944 15.7936 13.6964 15.7936ZM6.72352 15.7936H5.7276C5.52941 15.7936 5.33933 15.7149 5.19919 15.5748C5.05905 15.4346 4.98031 15.2445 4.98031 15.0463V1.59863C4.9805 1.40056 5.05932 1.21067 5.19944 1.07068C5.33956 0.930686 5.52953 0.852051 5.7276 0.852051H6.72352C6.92159 0.852051 7.11156 0.930686 7.25169 1.07068C7.39181 1.21067 7.47062 1.40056 7.47081 1.59863V15.0463C7.47081 15.2445 7.39208 15.4346 7.25194 15.5748C7.11179 15.7149 6.92171 15.7936 6.72352 15.7936Z" fill="white"/>
</svg>